<svg width="1088" height="332" viewBox="0 0 1088 332" fill="none" xmlns="http://www.w3.org/2000/svg">
<g filter="url(#filter0_d_177_4588)">
<path d="M968.505 40.8443C775.734 20.131 326.816 21.4256 126.123 40.8443C-29.6783 77.0929 16.5339 169.009 57.4647 211.73C57.4647 236.327 40.3001 288.111 94.4344 298.467C126.123 317.886 682.429 321.338 968.505 304.94C1060.4 301.833 1049.05 247.978 1041.12 211.73C1142.79 110.752 1041.12 48.6473 968.505 40.8443Z" fill="#FFFBE7"/>
<g filter="url(#filter1_d_177_4588)">
<path d="M535.535 295.357C527.239 295.876 528.842 302.929 530.681 306.391C534.285 310.285 542.508 318.896 546.568 322.184C550.628 325.473 554.732 323.554 556.277 322.184C559.66 318.506 567.31 310.198 570.84 306.391C575.43 297.736 569.811 295.429 566.427 295.357C555.394 297.737 544.362 297.737 535.535 295.357Z" fill="#FFB400"/>
</g>
</g>
<rect width="231.25" height="53.7843" rx="26.8921" transform="matrix(0.986259 -0.165206 0.191387 0.981515 0 43.9242)" fill="#E2826A"/>
<defs>
<filter id="filter0_d_177_4588" x="13.7742" y="0" width="1074.23" height="332" filterUnits="userSpaceOnUse" color-interpolation-filters="sRGB">
<feFlood flood-opacity="0" result="BackgroundImageFix"/>
<feColorMatrix in="SourceAlpha" type="matrix" values="0 0 0 0 0 0 0 0 0 0 0 0 0 0 0 0 0 0 127 0" result="hardAlpha"/>
<feOffset dy="4"/>
<feGaussianBlur stdDeviation="2"/>
<feComposite in2="hardAlpha" operator="out"/>
<feColorMatrix type="matrix" values="0 0 0 0 0 0 0 0 0 0 0 0 0 0 0 0 0 0 0.25 0"/>
<feBlend mode="normal" in2="BackgroundImageFix" result="effect1_dropShadow_177_4588"/>
<feBlend mode="normal" in="SourceGraphic" in2="effect1_dropShadow_177_4588" result="shape"/>
</filter>
<filter id="filter1_d_177_4588" x="525.204" y="295.357" width="51.3662" height="36.6432" filterUnits="userSpaceOnUse" color-interpolation-filters="sRGB">
<feFlood flood-opacity="0" result="BackgroundImageFix"/>
<feColorMatrix in="SourceAlpha" type="matrix" values="0 0 0 0 0 0 0 0 0 0 0 0 0 0 0 0 0 0 127 0" result="hardAlpha"/>
<feOffset dy="4"/>
<feGaussianBlur stdDeviation="2"/>
<feComposite in2="hardAlpha" operator="out"/>
<feColorMatrix type="matrix" values="0 0 0 0 0 0 0 0 0 0 0 0 0 0 0 0 0 0 0.25 0"/>
<feBlend mode="normal" in2="BackgroundImageFix" result="effect1_dropShadow_177_4588"/>
<feBlend mode="normal" in="SourceGraphic" in2="effect1_dropShadow_177_4588" result="shape"/>
</filter>
</defs>
</svg>
