<svg width="123" height="123" viewBox="0 0 123 123" fill="none" xmlns="http://www.w3.org/2000/svg">
<rect width="122.7" height="122.443" rx="45" fill="#F0F9FF"/>
<path fill-rule="evenodd" clip-rule="evenodd" d="M37.3517 51.6318C38.7344 50.0515 41.6421 45.3027 42.2111 38.95C42.78 32.5972 44.7395 28.4805 45.6482 27.2163C46.8526 25.5407 50.9547 20.4963 56.1732 19.802C58.9298 19.4352 65.7154 19.3364 67.9297 24.7419C68.4509 25.7566 69.6389 27.1771 70.2218 24.7419C70.8047 22.3068 72.1466 17.7572 72.7447 15.7868C72.8873 14.6503 73.6991 12.892 75.805 14.951C76.9828 16.2162 77.5859 16.8559 77.7402 17.0175C78.375 17.6825 78.7482 18.759 77.0838 19.802L72.7447 24.3282C72.6746 24.4642 72.6029 24.5951 72.5336 24.7215C71.8662 25.939 71.4246 26.7446 74.893 27.8254C80.2552 29.4963 80.6474 32.9449 80.498 39.5929C80.4923 41.7517 79.5102 46.943 75.6273 50.4376C74.9372 51.0587 74.2632 51.6013 73.6146 52.0741C74.2467 51.1271 74.5856 49.8959 74.5856 48.3764C74.5856 44.2947 71.6461 40.818 67.6411 40.818C63.6362 40.818 60.7906 43.4779 60.7906 47.5597C60.7906 51.6415 64.13 54.4599 68.1349 54.4599C68.6447 54.4599 69.1292 54.4275 69.5866 54.3624C68.4974 54.8019 67.654 54.9844 67.1671 55.0122C63.6151 55.2019 55.081 55.3374 49.361 54.3618C43.6411 53.5812 38.9715 52.2166 37.3517 51.6318Z" fill="#4BCC2A"/>
<path fill-rule="evenodd" clip-rule="evenodd" d="M91.0691 54.8211H98.1206C99.7774 54.8211 101.121 53.478 101.121 51.8211V49.5482C101.121 47.8913 99.7774 46.5482 98.1206 46.5482H87.7823C87.6085 46.5368 87.4354 46.5369 87.264 46.5482H87.0204C85.9415 46.5482 84.9955 47.1178 84.4669 47.9727C84.1679 48.3321 83.9274 48.7508 83.7651 49.2195L80.1837 59.5608H31V72.4029C31 80.1349 37.268 86.4029 45 86.4029H67.8272C68.9123 86.4029 69.972 86.2949 70.9964 86.0891L69.9452 89.1246L35.0901 89.1242C33.4333 89.1242 32.0901 90.4673 32.0901 92.1242V94.0303C32.0901 95.6872 33.4332 97.0303 35.0901 97.0303H36.7318C35.6968 98.4837 35.0904 100.248 35.0904 102.15C35.0904 107.121 39.2317 111.15 44.3404 111.15C49.449 111.15 53.5904 107.121 53.5904 102.15C53.5904 100.248 52.9839 98.4837 51.9489 97.0303H58.7318C57.6968 98.4837 57.0904 100.248 57.0904 102.15C57.0904 107.121 61.2317 111.15 66.3404 111.15C71.449 111.15 75.5904 107.121 75.5904 102.15C75.5904 100.285 75.0075 98.5532 74.0095 97.1164C75.4915 96.9558 76.8202 95.965 77.3415 94.4596L91.0691 54.8211ZM39.314 64.0455C39.314 63.4932 39.7617 63.0455 40.314 63.0455H42.431C42.9833 63.0455 43.431 63.4932 43.431 64.0455V80.0646C43.431 80.6168 42.9833 81.0646 42.431 81.0646H40.314C39.7617 81.0646 39.314 80.6168 39.314 80.0646V64.0455ZM49.781 63.0455C49.2287 63.0455 48.781 63.4932 48.781 64.0455V80.0646C48.781 80.6168 49.2287 81.0646 49.781 81.0646H51.8981C52.4504 81.0646 52.8981 80.6168 52.8981 80.0646V64.0455C52.8981 63.4932 52.4504 63.0455 51.8981 63.0455H49.781ZM58.2481 64.0455C58.2481 63.4932 58.6958 63.0455 59.2481 63.0455H61.3651C61.9174 63.0455 62.3651 63.4932 62.3651 64.0455V80.0646C62.3651 80.6168 61.9174 81.0646 61.3651 81.0646H59.2481C58.6958 81.0646 58.2481 80.6168 58.2481 80.0646V64.0455ZM68.7151 63.0455C68.1628 63.0455 67.7151 63.4932 67.7151 64.0455V80.0646C67.7151 80.6168 68.1628 81.0646 68.7151 81.0646H70.8322C71.3845 81.0646 71.8322 80.6168 71.8322 80.0646V64.0455C71.8322 63.4932 71.3845 63.0455 70.8322 63.0455H68.7151Z" fill="#66483D"/>
<ellipse cx="43.9968" cy="102.674" rx="2.99679" ry="2.91579" fill="#F0F9FF"/>
<ellipse cx="66.4904" cy="102.674" rx="2.99679" ry="2.91579" fill="#F0F9FF"/>
</svg>
