<svg width="1552" height="507" viewBox="0 0 1552 507" fill="none" xmlns="http://www.w3.org/2000/svg">
<g filter="url(#filter0_d_133_4743)">
<path d="M1382.51 62.9053C1107.33 31.0043 466.518 32.998 180.036 62.9053C-42.3647 118.733 23.6016 260.294 82.0288 326.09C82.0288 363.973 57.527 443.726 134.802 459.677C180.036 489.584 974.144 494.901 1382.51 469.646C1513.68 464.861 1497.48 381.917 1486.17 326.09C1631.29 170.572 1486.17 74.9228 1382.51 62.9053Z" fill="#FFFBE7"/>
<g filter="url(#filter1_d_133_4743)">
<path d="M764.458 454.886C752.615 455.686 754.904 466.548 757.528 471.879C762.673 477.877 774.411 491.139 780.207 496.204C786.003 501.268 791.861 498.314 794.066 496.204C798.896 490.539 809.815 477.744 814.855 471.879C821.406 458.551 813.385 454.997 808.555 454.886C792.806 458.551 777.057 458.551 764.458 454.886Z" fill="#FFB400"/>
</g>
</g>
<path d="M231.247 230.031H219.56L219.497 223.594H229.31C231.039 223.594 232.455 223.375 233.56 222.938C234.664 222.479 235.487 221.823 236.028 220.969C236.591 220.094 236.872 219.031 236.872 217.781C236.872 216.365 236.601 215.219 236.06 214.344C235.539 213.469 234.716 212.833 233.591 212.438C232.487 212.042 231.06 211.844 229.31 211.844H222.81V250H213.435V204.5H229.31C231.955 204.5 234.32 204.75 236.403 205.25C238.507 205.75 240.289 206.51 241.747 207.531C243.205 208.552 244.32 209.844 245.091 211.406C245.862 212.948 246.247 214.781 246.247 216.906C246.247 218.781 245.82 220.51 244.966 222.094C244.132 223.677 242.81 224.969 240.997 225.969C239.205 226.969 236.862 227.521 233.966 227.625L231.247 230.031ZM230.841 250H216.997L220.653 242.688H230.841C232.487 242.688 233.83 242.427 234.872 241.906C235.914 241.365 236.685 240.635 237.185 239.719C237.685 238.802 237.935 237.75 237.935 236.562C237.935 235.229 237.705 234.073 237.247 233.094C236.81 232.115 236.101 231.365 235.122 230.844C234.143 230.302 232.851 230.031 231.247 230.031H222.216L222.278 223.594H233.528L235.685 226.125C238.455 226.083 240.685 226.573 242.372 227.594C244.08 228.594 245.32 229.896 246.091 231.5C246.882 233.104 247.278 234.823 247.278 236.656C247.278 239.573 246.643 242.031 245.372 244.031C244.101 246.01 242.237 247.5 239.778 248.5C237.341 249.5 234.362 250 230.841 250ZM252.31 233.438V232.781C252.31 230.302 252.664 228.021 253.372 225.938C254.08 223.833 255.112 222.01 256.466 220.469C257.82 218.927 259.487 217.729 261.466 216.875C263.445 216 265.716 215.562 268.278 215.562C270.841 215.562 273.122 216 275.122 216.875C277.122 217.729 278.799 218.927 280.153 220.469C281.528 222.01 282.57 223.833 283.278 225.938C283.987 228.021 284.341 230.302 284.341 232.781V233.438C284.341 235.896 283.987 238.177 283.278 240.281C282.57 242.365 281.528 244.188 280.153 245.75C278.799 247.292 277.132 248.49 275.153 249.344C273.174 250.198 270.903 250.625 268.341 250.625C265.778 250.625 263.497 250.198 261.497 249.344C259.518 248.49 257.841 247.292 256.466 245.75C255.112 244.188 254.08 242.365 253.372 240.281C252.664 238.177 252.31 235.896 252.31 233.438ZM261.31 232.781V233.438C261.31 234.854 261.435 236.177 261.685 237.406C261.935 238.635 262.33 239.719 262.872 240.656C263.435 241.573 264.164 242.292 265.06 242.812C265.955 243.333 267.049 243.594 268.341 243.594C269.591 243.594 270.664 243.333 271.56 242.812C272.455 242.292 273.174 241.573 273.716 240.656C274.257 239.719 274.653 238.635 274.903 237.406C275.174 236.177 275.31 234.854 275.31 233.438V232.781C275.31 231.406 275.174 230.115 274.903 228.906C274.653 227.677 274.247 226.594 273.685 225.656C273.143 224.698 272.424 223.948 271.528 223.406C270.632 222.865 269.549 222.594 268.278 222.594C267.007 222.594 265.924 222.865 265.028 223.406C264.153 223.948 263.435 224.698 262.872 225.656C262.33 226.594 261.935 227.677 261.685 228.906C261.435 230.115 261.31 231.406 261.31 232.781ZM298.685 223.406V250H289.685V216.188H298.122L298.685 223.406ZM297.372 231.906H294.935C294.935 229.406 295.257 227.156 295.903 225.156C296.549 223.135 297.455 221.417 298.622 220C299.789 218.562 301.174 217.469 302.778 216.719C304.403 215.948 306.216 215.562 308.216 215.562C309.799 215.562 311.247 215.792 312.56 216.25C313.872 216.708 314.997 217.438 315.935 218.438C316.893 219.438 317.622 220.76 318.122 222.406C318.643 224.052 318.903 226.062 318.903 228.438V250H309.841V228.406C309.841 226.906 309.632 225.74 309.216 224.906C308.799 224.073 308.185 223.49 307.372 223.156C306.58 222.802 305.601 222.625 304.435 222.625C303.226 222.625 302.174 222.865 301.278 223.344C300.403 223.823 299.674 224.49 299.091 225.344C298.528 226.177 298.101 227.156 297.81 228.281C297.518 229.406 297.372 230.615 297.372 231.906ZM326.247 216.188H335.278V252.031C335.278 254.531 334.82 256.646 333.903 258.375C332.987 260.104 331.664 261.417 329.935 262.312C328.205 263.208 326.112 263.656 323.653 263.656C322.882 263.656 322.132 263.615 321.403 263.531C320.653 263.448 319.882 263.312 319.091 263.125L319.122 256.219C319.622 256.302 320.112 256.365 320.591 256.406C321.049 256.469 321.518 256.5 321.997 256.5C322.935 256.5 323.716 256.344 324.341 256.031C324.966 255.719 325.435 255.229 325.747 254.562C326.08 253.917 326.247 253.073 326.247 252.031V216.188ZM325.528 207.375C325.528 206.062 325.987 204.979 326.903 204.125C327.841 203.271 329.07 202.844 330.591 202.844C332.132 202.844 333.362 203.271 334.278 204.125C335.195 204.979 335.653 206.062 335.653 207.375C335.653 208.688 335.195 209.771 334.278 210.625C333.362 211.479 332.132 211.906 330.591 211.906C329.07 211.906 327.841 211.479 326.903 210.625C325.987 209.771 325.528 208.688 325.528 207.375ZM340.997 233.438V232.781C340.997 230.302 341.351 228.021 342.06 225.938C342.768 223.833 343.799 222.01 345.153 220.469C346.507 218.927 348.174 217.729 350.153 216.875C352.132 216 354.403 215.562 356.966 215.562C359.528 215.562 361.81 216 363.81 216.875C365.81 217.729 367.487 218.927 368.841 220.469C370.216 222.01 371.257 223.833 371.966 225.938C372.674 228.021 373.028 230.302 373.028 232.781V233.438C373.028 235.896 372.674 238.177 371.966 240.281C371.257 242.365 370.216 244.188 368.841 245.75C367.487 247.292 365.82 248.49 363.841 249.344C361.862 250.198 359.591 250.625 357.028 250.625C354.466 250.625 352.185 250.198 350.185 249.344C348.205 248.49 346.528 247.292 345.153 245.75C343.799 244.188 342.768 242.365 342.06 240.281C341.351 238.177 340.997 235.896 340.997 233.438ZM349.997 232.781V233.438C349.997 234.854 350.122 236.177 350.372 237.406C350.622 238.635 351.018 239.719 351.56 240.656C352.122 241.573 352.851 242.292 353.747 242.812C354.643 243.333 355.737 243.594 357.028 243.594C358.278 243.594 359.351 243.333 360.247 242.812C361.143 242.292 361.862 241.573 362.403 240.656C362.945 239.719 363.341 238.635 363.591 237.406C363.862 236.177 363.997 234.854 363.997 233.438V232.781C363.997 231.406 363.862 230.115 363.591 228.906C363.341 227.677 362.935 226.594 362.372 225.656C361.83 224.698 361.112 223.948 360.216 223.406C359.32 222.865 358.237 222.594 356.966 222.594C355.695 222.594 354.612 222.865 353.716 223.406C352.841 223.948 352.122 224.698 351.56 225.656C351.018 226.594 350.622 227.677 350.372 228.906C350.122 230.115 349.997 231.406 349.997 232.781ZM398.56 241.906V216.188H407.56V250H399.091L398.56 241.906ZM399.56 234.969L402.216 234.906C402.216 237.156 401.955 239.25 401.435 241.188C400.914 243.104 400.132 244.771 399.091 246.188C398.049 247.583 396.737 248.677 395.153 249.469C393.57 250.24 391.705 250.625 389.56 250.625C387.914 250.625 386.393 250.396 384.997 249.938C383.622 249.458 382.435 248.719 381.435 247.719C380.455 246.698 379.685 245.396 379.122 243.812C378.58 242.208 378.31 240.281 378.31 238.031V216.188H387.31V238.094C387.31 239.094 387.424 239.938 387.653 240.625C387.903 241.312 388.247 241.875 388.685 242.312C389.122 242.75 389.632 243.062 390.216 243.25C390.82 243.438 391.487 243.531 392.216 243.531C394.07 243.531 395.528 243.156 396.591 242.406C397.674 241.656 398.435 240.635 398.872 239.344C399.33 238.031 399.56 236.573 399.56 234.969ZM423.435 223.562V250H414.435V216.188H422.903L423.435 223.562ZM433.622 215.969L433.466 224.312C433.028 224.25 432.497 224.198 431.872 224.156C431.268 224.094 430.716 224.062 430.216 224.062C428.945 224.062 427.841 224.229 426.903 224.562C425.987 224.875 425.216 225.344 424.591 225.969C423.987 226.594 423.528 227.354 423.216 228.25C422.924 229.146 422.757 230.167 422.716 231.312L420.903 230.75C420.903 228.562 421.122 226.552 421.56 224.719C421.997 222.865 422.632 221.25 423.466 219.875C424.32 218.5 425.362 217.438 426.591 216.688C427.82 215.938 429.226 215.562 430.81 215.562C431.31 215.562 431.82 215.604 432.341 215.688C432.862 215.75 433.289 215.844 433.622 215.969ZM469.372 250.625C466.747 250.625 464.393 250.208 462.31 249.375C460.226 248.521 458.455 247.344 456.997 245.844C455.56 244.344 454.455 242.604 453.685 240.625C452.914 238.625 452.528 236.5 452.528 234.25V233C452.528 230.438 452.893 228.094 453.622 225.969C454.351 223.844 455.393 222 456.747 220.438C458.122 218.875 459.789 217.677 461.747 216.844C463.705 215.99 465.914 215.562 468.372 215.562C470.768 215.562 472.893 215.958 474.747 216.75C476.601 217.542 478.153 218.667 479.403 220.125C480.674 221.583 481.632 223.333 482.278 225.375C482.924 227.396 483.247 229.646 483.247 232.125V235.875H456.372V229.875H474.403V229.188C474.403 227.938 474.174 226.823 473.716 225.844C473.278 224.844 472.612 224.052 471.716 223.469C470.82 222.885 469.674 222.594 468.278 222.594C467.091 222.594 466.07 222.854 465.216 223.375C464.362 223.896 463.664 224.625 463.122 225.562C462.601 226.5 462.205 227.604 461.935 228.875C461.685 230.125 461.56 231.5 461.56 233V234.25C461.56 235.604 461.747 236.854 462.122 238C462.518 239.146 463.07 240.135 463.778 240.969C464.507 241.802 465.382 242.448 466.403 242.906C467.445 243.365 468.622 243.594 469.935 243.594C471.56 243.594 473.07 243.281 474.466 242.656C475.882 242.01 477.101 241.042 478.122 239.75L482.497 244.5C481.789 245.521 480.82 246.5 479.591 247.438C478.382 248.375 476.924 249.146 475.216 249.75C473.507 250.333 471.56 250.625 469.372 250.625ZM504.935 216.188V222.562H485.247V216.188H504.935ZM490.122 207.844H499.122V239.812C499.122 240.792 499.247 241.542 499.497 242.062C499.768 242.583 500.164 242.948 500.685 243.156C501.205 243.344 501.862 243.438 502.653 243.438C503.216 243.438 503.716 243.417 504.153 243.375C504.612 243.312 504.997 243.25 505.31 243.188L505.341 249.812C504.57 250.062 503.737 250.26 502.841 250.406C501.945 250.552 500.955 250.625 499.872 250.625C497.893 250.625 496.164 250.302 494.685 249.656C493.226 248.99 492.101 247.927 491.31 246.469C490.518 245.01 490.122 243.094 490.122 240.719V207.844ZM525.997 202H534.997V242.25L534.091 250H525.997V202ZM556.403 232.75V233.406C556.403 235.927 556.132 238.24 555.591 240.344C555.07 242.448 554.257 244.271 553.153 245.812C552.049 247.333 550.674 248.521 549.028 249.375C547.403 250.208 545.487 250.625 543.278 250.625C541.216 250.625 539.424 250.208 537.903 249.375C536.403 248.542 535.143 247.365 534.122 245.844C533.101 244.323 532.278 242.542 531.653 240.5C531.028 238.458 530.56 236.229 530.247 233.812V232.375C530.56 229.958 531.028 227.729 531.653 225.688C532.278 223.646 533.101 221.865 534.122 220.344C535.143 218.823 536.403 217.646 537.903 216.812C539.403 215.979 541.174 215.562 543.216 215.562C545.445 215.562 547.382 215.99 549.028 216.844C550.695 217.677 552.07 218.865 553.153 220.406C554.257 221.927 555.07 223.74 555.591 225.844C556.132 227.927 556.403 230.229 556.403 232.75ZM547.403 233.406V232.75C547.403 231.375 547.299 230.083 547.091 228.875C546.903 227.646 546.57 226.573 546.091 225.656C545.612 224.719 544.955 223.979 544.122 223.438C543.31 222.896 542.257 222.625 540.966 222.625C539.737 222.625 538.695 222.833 537.841 223.25C536.987 223.667 536.278 224.25 535.716 225C535.174 225.75 534.768 226.646 534.497 227.688C534.226 228.708 534.06 229.833 533.997 231.062V235.156C534.06 236.802 534.33 238.26 534.81 239.531C535.31 240.781 536.06 241.771 537.06 242.5C538.08 243.208 539.403 243.562 541.028 243.562C542.299 243.562 543.351 243.312 544.185 242.812C545.018 242.312 545.664 241.604 546.122 240.688C546.601 239.771 546.935 238.698 547.122 237.469C547.31 236.219 547.403 234.865 547.403 233.406ZM571.497 216.188V250H562.466V216.188H571.497ZM561.903 207.375C561.903 206.062 562.362 204.979 563.278 204.125C564.195 203.271 565.424 202.844 566.966 202.844C568.487 202.844 569.705 203.271 570.622 204.125C571.56 204.979 572.028 206.062 572.028 207.375C572.028 208.688 571.56 209.771 570.622 210.625C569.705 211.479 568.487 211.906 566.966 211.906C565.424 211.906 564.195 211.479 563.278 210.625C562.362 209.771 561.903 208.688 561.903 207.375ZM594.497 250.625C591.872 250.625 589.518 250.208 587.435 249.375C585.351 248.521 583.58 247.344 582.122 245.844C580.685 244.344 579.58 242.604 578.81 240.625C578.039 238.625 577.653 236.5 577.653 234.25V233C577.653 230.438 578.018 228.094 578.747 225.969C579.476 223.844 580.518 222 581.872 220.438C583.247 218.875 584.914 217.677 586.872 216.844C588.83 215.99 591.039 215.562 593.497 215.562C595.893 215.562 598.018 215.958 599.872 216.75C601.726 217.542 603.278 218.667 604.528 220.125C605.799 221.583 606.757 223.333 607.403 225.375C608.049 227.396 608.372 229.646 608.372 232.125V235.875H581.497V229.875H599.528V229.188C599.528 227.938 599.299 226.823 598.841 225.844C598.403 224.844 597.737 224.052 596.841 223.469C595.945 222.885 594.799 222.594 593.403 222.594C592.216 222.594 591.195 222.854 590.341 223.375C589.487 223.896 588.789 224.625 588.247 225.562C587.726 226.5 587.33 227.604 587.06 228.875C586.81 230.125 586.685 231.5 586.685 233V234.25C586.685 235.604 586.872 236.854 587.247 238C587.643 239.146 588.195 240.135 588.903 240.969C589.632 241.802 590.507 242.448 591.528 242.906C592.57 243.365 593.747 243.594 595.06 243.594C596.685 243.594 598.195 243.281 599.591 242.656C601.007 242.01 602.226 241.042 603.247 239.75L607.622 244.5C606.914 245.521 605.945 246.5 604.716 247.438C603.507 248.375 602.049 249.146 600.341 249.75C598.632 250.333 596.685 250.625 594.497 250.625ZM622.31 223.406V250H613.31V216.188H621.747L622.31 223.406ZM620.997 231.906H618.56C618.56 229.406 618.882 227.156 619.528 225.156C620.174 223.135 621.08 221.417 622.247 220C623.414 218.562 624.799 217.469 626.403 216.719C628.028 215.948 629.841 215.562 631.841 215.562C633.424 215.562 634.872 215.792 636.185 216.25C637.497 216.708 638.622 217.438 639.56 218.438C640.518 219.438 641.247 220.76 641.747 222.406C642.268 224.052 642.528 226.062 642.528 228.438V250H633.466V228.406C633.466 226.906 633.257 225.74 632.841 224.906C632.424 224.073 631.81 223.49 630.997 223.156C630.205 222.802 629.226 222.625 628.06 222.625C626.851 222.625 625.799 222.865 624.903 223.344C624.028 223.823 623.299 224.49 622.716 225.344C622.153 226.177 621.726 227.156 621.435 228.281C621.143 229.406 620.997 230.615 620.997 231.906ZM660.872 243.438L668.372 216.188H677.778L666.372 250H660.685L660.872 243.438ZM655.716 216.188L663.247 243.469L663.403 250H657.685L646.278 216.188H655.716ZM696.935 250.625C694.31 250.625 691.955 250.208 689.872 249.375C687.789 248.521 686.018 247.344 684.56 245.844C683.122 244.344 682.018 242.604 681.247 240.625C680.476 238.625 680.091 236.5 680.091 234.25V233C680.091 230.438 680.455 228.094 681.185 225.969C681.914 223.844 682.955 222 684.31 220.438C685.685 218.875 687.351 217.677 689.31 216.844C691.268 215.99 693.476 215.562 695.935 215.562C698.33 215.562 700.455 215.958 702.31 216.75C704.164 217.542 705.716 218.667 706.966 220.125C708.237 221.583 709.195 223.333 709.841 225.375C710.487 227.396 710.81 229.646 710.81 232.125V235.875H683.935V229.875H701.966V229.188C701.966 227.938 701.737 226.823 701.278 225.844C700.841 224.844 700.174 224.052 699.278 223.469C698.382 222.885 697.237 222.594 695.841 222.594C694.653 222.594 693.632 222.854 692.778 223.375C691.924 223.896 691.226 224.625 690.685 225.562C690.164 226.5 689.768 227.604 689.497 228.875C689.247 230.125 689.122 231.5 689.122 233V234.25C689.122 235.604 689.31 236.854 689.685 238C690.08 239.146 690.632 240.135 691.341 240.969C692.07 241.802 692.945 242.448 693.966 242.906C695.007 243.365 696.185 243.594 697.497 243.594C699.122 243.594 700.632 243.281 702.028 242.656C703.445 242.01 704.664 241.042 705.685 239.75L710.06 244.5C709.351 245.521 708.382 246.5 707.153 247.438C705.945 248.375 704.487 249.146 702.778 249.75C701.07 250.333 699.122 250.625 696.935 250.625ZM724.747 223.406V250H715.747V216.188H724.185L724.747 223.406ZM723.435 231.906H720.997C720.997 229.406 721.32 227.156 721.966 225.156C722.612 223.135 723.518 221.417 724.685 220C725.851 218.562 727.237 217.469 728.841 216.719C730.466 215.948 732.278 215.562 734.278 215.562C735.862 215.562 737.31 215.792 738.622 216.25C739.935 216.708 741.06 217.438 741.997 218.438C742.955 219.438 743.685 220.76 744.185 222.406C744.705 224.052 744.966 226.062 744.966 228.438V250H735.903V228.406C735.903 226.906 735.695 225.74 735.278 224.906C734.862 224.073 734.247 223.49 733.435 223.156C732.643 222.802 731.664 222.625 730.497 222.625C729.289 222.625 728.237 222.865 727.341 223.344C726.466 223.823 725.737 224.49 725.153 225.344C724.591 226.177 724.164 227.156 723.872 228.281C723.58 229.406 723.435 230.615 723.435 231.906ZM771.81 241.906V216.188H780.81V250H772.341L771.81 241.906ZM772.81 234.969L775.466 234.906C775.466 237.156 775.205 239.25 774.685 241.188C774.164 243.104 773.382 244.771 772.341 246.188C771.299 247.583 769.987 248.677 768.403 249.469C766.82 250.24 764.955 250.625 762.81 250.625C761.164 250.625 759.643 250.396 758.247 249.938C756.872 249.458 755.685 248.719 754.685 247.719C753.705 246.698 752.935 245.396 752.372 243.812C751.83 242.208 751.56 240.281 751.56 238.031V216.188H760.56V238.094C760.56 239.094 760.674 239.938 760.903 240.625C761.153 241.312 761.497 241.875 761.935 242.312C762.372 242.75 762.882 243.062 763.466 243.25C764.07 243.438 764.737 243.531 765.466 243.531C767.32 243.531 768.778 243.156 769.841 242.406C770.924 241.656 771.685 240.635 772.122 239.344C772.58 238.031 772.81 236.573 772.81 234.969ZM803.247 250.625C800.622 250.625 798.268 250.208 796.185 249.375C794.101 248.521 792.33 247.344 790.872 245.844C789.435 244.344 788.33 242.604 787.56 240.625C786.789 238.625 786.403 236.5 786.403 234.25V233C786.403 230.438 786.768 228.094 787.497 225.969C788.226 223.844 789.268 222 790.622 220.438C791.997 218.875 793.664 217.677 795.622 216.844C797.58 215.99 799.789 215.562 802.247 215.562C804.643 215.562 806.768 215.958 808.622 216.75C810.476 217.542 812.028 218.667 813.278 220.125C814.549 221.583 815.507 223.333 816.153 225.375C816.799 227.396 817.122 229.646 817.122 232.125V235.875H790.247V229.875H808.278V229.188C808.278 227.938 808.049 226.823 807.591 225.844C807.153 224.844 806.487 224.052 805.591 223.469C804.695 222.885 803.549 222.594 802.153 222.594C800.966 222.594 799.945 222.854 799.091 223.375C798.237 223.896 797.539 224.625 796.997 225.562C796.476 226.5 796.08 227.604 795.81 228.875C795.56 230.125 795.435 231.5 795.435 233V234.25C795.435 235.604 795.622 236.854 795.997 238C796.393 239.146 796.945 240.135 797.653 240.969C798.382 241.802 799.257 242.448 800.278 242.906C801.32 243.365 802.497 243.594 803.81 243.594C805.435 243.594 806.945 243.281 808.341 242.656C809.757 242.01 810.976 241.042 811.997 239.75L816.372 244.5C815.664 245.521 814.695 246.5 813.466 247.438C812.257 248.375 810.799 249.146 809.091 249.75C807.382 250.333 805.435 250.625 803.247 250.625ZM856.435 242.375V227.312C856.435 226.229 856.257 225.302 855.903 224.531C855.549 223.74 854.997 223.125 854.247 222.688C853.518 222.25 852.57 222.031 851.403 222.031C850.403 222.031 849.539 222.208 848.81 222.562C848.08 222.896 847.518 223.385 847.122 224.031C846.726 224.656 846.528 225.396 846.528 226.25H837.528C837.528 224.812 837.862 223.448 838.528 222.156C839.195 220.865 840.164 219.729 841.435 218.75C842.705 217.75 844.216 216.969 845.966 216.406C847.737 215.844 849.716 215.562 851.903 215.562C854.528 215.562 856.862 216 858.903 216.875C860.945 217.75 862.549 219.062 863.716 220.812C864.903 222.562 865.497 224.75 865.497 227.375V241.844C865.497 243.698 865.612 245.219 865.841 246.406C866.07 247.573 866.403 248.594 866.841 249.469V250H857.747C857.31 249.083 856.976 247.938 856.747 246.562C856.539 245.167 856.435 243.771 856.435 242.375ZM857.622 229.406L857.685 234.5H852.653C851.466 234.5 850.435 234.635 849.56 234.906C848.685 235.177 847.966 235.562 847.403 236.062C846.841 236.542 846.424 237.104 846.153 237.75C845.903 238.396 845.778 239.104 845.778 239.875C845.778 240.646 845.955 241.344 846.31 241.969C846.664 242.573 847.174 243.052 847.841 243.406C848.507 243.74 849.289 243.906 850.185 243.906C851.539 243.906 852.716 243.635 853.716 243.094C854.716 242.552 855.487 241.885 856.028 241.094C856.591 240.302 856.882 239.552 856.903 238.844L859.278 242.656C858.945 243.51 858.487 244.396 857.903 245.312C857.341 246.229 856.622 247.094 855.747 247.906C854.872 248.698 853.82 249.354 852.591 249.875C851.362 250.375 849.903 250.625 848.216 250.625C846.07 250.625 844.122 250.198 842.372 249.344C840.643 248.469 839.268 247.271 838.247 245.75C837.247 244.208 836.747 242.458 836.747 240.5C836.747 238.729 837.08 237.156 837.747 235.781C838.414 234.406 839.393 233.25 840.685 232.312C841.997 231.354 843.632 230.635 845.591 230.156C847.549 229.656 849.82 229.406 852.403 229.406H857.622ZM850.153 202L856.31 211.625H848.935L840.372 202H850.153ZM897.872 202V250H888.841V202H897.872ZM923.56 242.375V227.312C923.56 226.229 923.382 225.302 923.028 224.531C922.674 223.74 922.122 223.125 921.372 222.688C920.643 222.25 919.695 222.031 918.528 222.031C917.528 222.031 916.664 222.208 915.935 222.562C915.205 222.896 914.643 223.385 914.247 224.031C913.851 224.656 913.653 225.396 913.653 226.25H904.653C904.653 224.812 904.987 223.448 905.653 222.156C906.32 220.865 907.289 219.729 908.56 218.75C909.83 217.75 911.341 216.969 913.091 216.406C914.862 215.844 916.841 215.562 919.028 215.562C921.653 215.562 923.987 216 926.028 216.875C928.07 217.75 929.674 219.062 930.841 220.812C932.028 222.562 932.622 224.75 932.622 227.375V241.844C932.622 243.698 932.737 245.219 932.966 246.406C933.195 247.573 933.528 248.594 933.966 249.469V250H924.872C924.435 249.083 924.101 247.938 923.872 246.562C923.664 245.167 923.56 243.771 923.56 242.375ZM924.747 229.406L924.81 234.5H919.778C918.591 234.5 917.56 234.635 916.685 234.906C915.81 235.177 915.091 235.562 914.528 236.062C913.966 236.542 913.549 237.104 913.278 237.75C913.028 238.396 912.903 239.104 912.903 239.875C912.903 240.646 913.08 241.344 913.435 241.969C913.789 242.573 914.299 243.052 914.966 243.406C915.632 243.74 916.414 243.906 917.31 243.906C918.664 243.906 919.841 243.635 920.841 243.094C921.841 242.552 922.612 241.885 923.153 241.094C923.716 240.302 924.007 239.552 924.028 238.844L926.403 242.656C926.07 243.51 925.612 244.396 925.028 245.312C924.466 246.229 923.747 247.094 922.872 247.906C921.997 248.698 920.945 249.354 919.716 249.875C918.487 250.375 917.028 250.625 915.341 250.625C913.195 250.625 911.247 250.198 909.497 249.344C907.768 248.469 906.393 247.271 905.372 245.75C904.372 244.208 903.872 242.458 903.872 240.5C903.872 238.729 904.205 237.156 904.872 235.781C905.539 234.406 906.518 233.25 907.81 232.312C909.122 231.354 910.757 230.635 912.716 230.156C914.674 229.656 916.945 229.406 919.528 229.406H924.747ZM973.872 230.031H962.185L962.122 223.594H971.935C973.664 223.594 975.08 223.375 976.185 222.938C977.289 222.479 978.112 221.823 978.653 220.969C979.216 220.094 979.497 219.031 979.497 217.781C979.497 216.365 979.226 215.219 978.685 214.344C978.164 213.469 977.341 212.833 976.216 212.438C975.112 212.042 973.685 211.844 971.935 211.844H965.435V250H956.06V204.5H971.935C974.58 204.5 976.945 204.75 979.028 205.25C981.132 205.75 982.914 206.51 984.372 207.531C985.83 208.552 986.945 209.844 987.716 211.406C988.487 212.948 988.872 214.781 988.872 216.906C988.872 218.781 988.445 220.51 987.591 222.094C986.757 223.677 985.435 224.969 983.622 225.969C981.83 226.969 979.487 227.521 976.591 227.625L973.872 230.031ZM973.466 250H959.622L963.278 242.688H973.466C975.112 242.688 976.455 242.427 977.497 241.906C978.539 241.365 979.31 240.635 979.81 239.719C980.31 238.802 980.56 237.75 980.56 236.562C980.56 235.229 980.33 234.073 979.872 233.094C979.435 232.115 978.726 231.365 977.747 230.844C976.768 230.302 975.476 230.031 973.872 230.031H964.841L964.903 223.594H976.153L978.31 226.125C981.08 226.083 983.31 226.573 984.997 227.594C986.705 228.594 987.945 229.896 988.716 231.5C989.507 233.104 989.903 234.823 989.903 236.656C989.903 239.573 989.268 242.031 987.997 244.031C986.726 246.01 984.862 247.5 982.403 248.5C979.966 249.5 976.987 250 973.466 250ZM994.935 233.438V232.781C994.935 230.302 995.289 228.021 995.997 225.938C996.705 223.833 997.737 222.01 999.091 220.469C1000.44 218.927 1002.11 217.729 1004.09 216.875C1006.07 216 1008.34 215.562 1010.9 215.562C1013.47 215.562 1015.75 216 1017.75 216.875C1019.75 217.729 1021.42 218.927 1022.78 220.469C1024.15 222.01 1025.19 223.833 1025.9 225.938C1026.61 228.021 1026.97 230.302 1026.97 232.781V233.438C1026.97 235.896 1026.61 238.177 1025.9 240.281C1025.19 242.365 1024.15 244.188 1022.78 245.75C1021.42 247.292 1019.76 248.49 1017.78 249.344C1015.8 250.198 1013.53 250.625 1010.97 250.625C1008.4 250.625 1006.12 250.198 1004.12 249.344C1002.14 248.49 1000.47 247.292 999.091 245.75C997.737 244.188 996.705 242.365 995.997 240.281C995.289 238.177 994.935 235.896 994.935 233.438ZM1003.93 232.781V233.438C1003.93 234.854 1004.06 236.177 1004.31 237.406C1004.56 238.635 1004.96 239.719 1005.5 240.656C1006.06 241.573 1006.79 242.292 1007.68 242.812C1008.58 243.333 1009.67 243.594 1010.97 243.594C1012.22 243.594 1013.29 243.333 1014.18 242.812C1015.08 242.292 1015.8 241.573 1016.34 240.656C1016.88 239.719 1017.28 238.635 1017.53 237.406C1017.8 236.177 1017.93 234.854 1017.93 233.438V232.781C1017.93 231.406 1017.8 230.115 1017.53 228.906C1017.28 227.677 1016.87 226.594 1016.31 225.656C1015.77 224.698 1015.05 223.948 1014.15 223.406C1013.26 222.865 1012.17 222.594 1010.9 222.594C1009.63 222.594 1008.55 222.865 1007.65 223.406C1006.78 223.948 1006.06 224.698 1005.5 225.656C1004.96 226.594 1004.56 227.677 1004.31 228.906C1004.06 230.115 1003.93 231.406 1003.93 232.781ZM1052.5 241.906V216.188H1061.5V250H1053.03L1052.5 241.906ZM1053.5 234.969L1056.15 234.906C1056.15 237.156 1055.89 239.25 1055.37 241.188C1054.85 243.104 1054.07 244.771 1053.03 246.188C1051.99 247.583 1050.67 248.677 1049.09 249.469C1047.51 250.24 1045.64 250.625 1043.5 250.625C1041.85 250.625 1040.33 250.396 1038.93 249.938C1037.56 249.458 1036.37 248.719 1035.37 247.719C1034.39 246.698 1033.62 245.396 1033.06 243.812C1032.52 242.208 1032.25 240.281 1032.25 238.031V216.188H1041.25V238.094C1041.25 239.094 1041.36 239.938 1041.59 240.625C1041.84 241.312 1042.18 241.875 1042.62 242.312C1043.06 242.75 1043.57 243.062 1044.15 243.25C1044.76 243.438 1045.42 243.531 1046.15 243.531C1048.01 243.531 1049.47 243.156 1050.53 242.406C1051.61 241.656 1052.37 240.635 1052.81 239.344C1053.27 238.031 1053.5 236.573 1053.5 234.969ZM1084.93 216.188V222.562H1065.25V216.188H1084.93ZM1070.12 207.844H1079.12V239.812C1079.12 240.792 1079.25 241.542 1079.5 242.062C1079.77 242.583 1080.16 242.948 1080.68 243.156C1081.21 243.344 1081.86 243.438 1082.65 243.438C1083.22 243.438 1083.72 243.417 1084.15 243.375C1084.61 243.312 1085 243.25 1085.31 243.188L1085.34 249.812C1084.57 250.062 1083.74 250.26 1082.84 250.406C1081.94 250.552 1080.96 250.625 1079.87 250.625C1077.89 250.625 1076.16 250.302 1074.68 249.656C1073.23 248.99 1072.1 247.927 1071.31 246.469C1070.52 245.01 1070.12 243.094 1070.12 240.719V207.844ZM1099.56 216.188V250H1090.53V216.188H1099.56ZM1089.97 207.375C1089.97 206.062 1090.42 204.979 1091.34 204.125C1092.26 203.271 1093.49 202.844 1095.03 202.844C1096.55 202.844 1097.77 203.271 1098.68 204.125C1099.62 204.979 1100.09 206.062 1100.09 207.375C1100.09 208.688 1099.62 209.771 1098.68 210.625C1097.77 211.479 1096.55 211.906 1095.03 211.906C1093.49 211.906 1092.26 211.479 1091.34 210.625C1090.42 209.771 1089.97 208.688 1089.97 207.375ZM1126.97 263V223.094L1128.12 216.188H1136.03V263H1126.97ZM1105.59 233.438V232.781C1105.59 230.198 1105.87 227.854 1106.43 225.75C1107.02 223.625 1107.87 221.812 1109 220.312C1110.12 218.792 1111.5 217.625 1113.12 216.812C1114.77 215.979 1116.66 215.562 1118.81 215.562C1120.87 215.562 1122.65 215.979 1124.15 216.812C1125.65 217.646 1126.91 218.823 1127.93 220.344C1128.98 221.865 1129.81 223.656 1130.43 225.719C1131.06 227.781 1131.54 230.042 1131.87 232.5V233.938C1131.56 236.292 1131.08 238.479 1130.43 240.5C1129.81 242.521 1128.98 244.292 1127.93 245.812C1126.91 247.333 1125.64 248.521 1124.12 249.375C1122.62 250.208 1120.83 250.625 1118.75 250.625C1116.64 250.625 1114.77 250.198 1113.12 249.344C1111.5 248.469 1110.12 247.26 1109 245.719C1107.87 244.177 1107.02 242.365 1106.43 240.281C1105.87 238.177 1105.59 235.896 1105.59 233.438ZM1114.59 232.781V233.438C1114.59 234.833 1114.71 236.146 1114.93 237.375C1115.16 238.583 1115.53 239.656 1116.03 240.594C1116.55 241.531 1117.22 242.271 1118.03 242.812C1118.84 243.333 1119.84 243.594 1121.03 243.594C1122.67 243.594 1124 243.24 1125 242.531C1126.02 241.802 1126.77 240.812 1127.25 239.562C1127.75 238.312 1128.04 236.885 1128.12 235.281V231.188C1128.06 229.875 1127.88 228.698 1127.59 227.656C1127.32 226.594 1126.9 225.688 1126.34 224.938C1125.8 224.188 1125.09 223.615 1124.22 223.219C1123.36 222.802 1122.32 222.594 1121.09 222.594C1119.92 222.594 1118.92 222.854 1118.09 223.375C1117.26 223.896 1116.58 224.625 1116.06 225.562C1115.56 226.479 1115.18 227.552 1114.93 228.781C1114.71 230.01 1114.59 231.344 1114.59 232.781ZM1163.12 241.906V216.188H1172.12V250H1163.65L1163.12 241.906ZM1164.12 234.969L1166.78 234.906C1166.78 237.156 1166.52 239.25 1166 241.188C1165.48 243.104 1164.69 244.771 1163.65 246.188C1162.61 247.583 1161.3 248.677 1159.72 249.469C1158.13 250.24 1156.27 250.625 1154.12 250.625C1152.48 250.625 1150.96 250.396 1149.56 249.938C1148.18 249.458 1147 248.719 1146 247.719C1145.02 246.698 1144.25 245.396 1143.68 243.812C1143.14 242.208 1142.87 240.281 1142.87 238.031V216.188H1151.87V238.094C1151.87 239.094 1151.99 239.938 1152.22 240.625C1152.47 241.312 1152.81 241.875 1153.25 242.312C1153.68 242.75 1154.19 243.062 1154.78 243.25C1155.38 243.438 1156.05 243.531 1156.78 243.531C1158.63 243.531 1160.09 243.156 1161.15 242.406C1162.24 241.656 1163 240.635 1163.43 239.344C1163.89 238.031 1164.12 236.573 1164.12 234.969ZM1194.56 250.625C1191.93 250.625 1189.58 250.208 1187.5 249.375C1185.41 248.521 1183.64 247.344 1182.18 245.844C1180.75 244.344 1179.64 242.604 1178.87 240.625C1178.1 238.625 1177.72 236.5 1177.72 234.25V233C1177.72 230.438 1178.08 228.094 1178.81 225.969C1179.54 223.844 1180.58 222 1181.93 220.438C1183.31 218.875 1184.98 217.677 1186.93 216.844C1188.89 215.99 1191.1 215.562 1193.56 215.562C1195.96 215.562 1198.08 215.958 1199.93 216.75C1201.79 217.542 1203.34 218.667 1204.59 220.125C1205.86 221.583 1206.82 223.333 1207.47 225.375C1208.11 227.396 1208.43 229.646 1208.43 232.125V235.875H1181.56V229.875H1199.59V229.188C1199.59 227.938 1199.36 226.823 1198.9 225.844C1198.47 224.844 1197.8 224.052 1196.9 223.469C1196.01 222.885 1194.86 222.594 1193.47 222.594C1192.28 222.594 1191.26 222.854 1190.4 223.375C1189.55 223.896 1188.85 224.625 1188.31 225.562C1187.79 226.5 1187.39 227.604 1187.12 228.875C1186.87 230.125 1186.75 231.5 1186.75 233V234.25C1186.75 235.604 1186.93 236.854 1187.31 238C1187.71 239.146 1188.26 240.135 1188.97 240.969C1189.69 241.802 1190.57 242.448 1191.59 242.906C1192.63 243.365 1193.81 243.594 1195.12 243.594C1196.75 243.594 1198.26 243.281 1199.65 242.656C1201.07 242.01 1202.29 241.042 1203.31 239.75L1207.68 244.5C1206.98 245.521 1206.01 246.5 1204.78 247.438C1203.57 248.375 1202.11 249.146 1200.4 249.75C1198.69 250.333 1196.75 250.625 1194.56 250.625ZM1267.09 204.5V250H1257.72L1239.43 219.5V250H1230.06V204.5H1239.43L1257.75 235.031V204.5H1267.09ZM1273.25 233.438V232.781C1273.25 230.302 1273.6 228.021 1274.31 225.938C1275.02 223.833 1276.05 222.01 1277.4 220.469C1278.76 218.927 1280.42 217.729 1282.4 216.875C1284.38 216 1286.65 215.562 1289.22 215.562C1291.78 215.562 1294.06 216 1296.06 216.875C1298.06 217.729 1299.74 218.927 1301.09 220.469C1302.47 222.01 1303.51 223.833 1304.22 225.938C1304.92 228.021 1305.28 230.302 1305.28 232.781V233.438C1305.28 235.896 1304.92 238.177 1304.22 240.281C1303.51 242.365 1302.47 244.188 1301.09 245.75C1299.74 247.292 1298.07 248.49 1296.09 249.344C1294.11 250.198 1291.84 250.625 1289.28 250.625C1286.72 250.625 1284.43 250.198 1282.43 249.344C1280.46 248.49 1278.78 247.292 1277.4 245.75C1276.05 244.188 1275.02 242.365 1274.31 240.281C1273.6 238.177 1273.25 235.896 1273.25 233.438ZM1282.25 232.781V233.438C1282.25 234.854 1282.37 236.177 1282.62 237.406C1282.87 238.635 1283.27 239.719 1283.81 240.656C1284.37 241.573 1285.1 242.292 1286 242.812C1286.89 243.333 1287.99 243.594 1289.28 243.594C1290.53 243.594 1291.6 243.333 1292.5 242.812C1293.39 242.292 1294.11 241.573 1294.65 240.656C1295.19 239.719 1295.59 238.635 1295.84 237.406C1296.11 236.177 1296.25 234.854 1296.25 233.438V232.781C1296.25 231.406 1296.11 230.115 1295.84 228.906C1295.59 227.677 1295.18 226.594 1294.62 225.656C1294.08 224.698 1293.36 223.948 1292.47 223.406C1291.57 222.865 1290.49 222.594 1289.22 222.594C1287.94 222.594 1286.86 222.865 1285.97 223.406C1285.09 223.948 1284.37 224.698 1283.81 225.656C1283.27 226.594 1282.87 227.677 1282.62 228.906C1282.37 230.115 1282.25 231.406 1282.25 232.781ZM1309.37 233.438V232.781C1309.37 230.302 1309.73 228.021 1310.43 225.938C1311.14 223.833 1312.17 222.01 1313.53 220.469C1314.88 218.927 1316.55 217.729 1318.53 216.875C1320.51 216 1322.78 215.562 1325.34 215.562C1327.9 215.562 1330.18 216 1332.18 216.875C1334.18 217.729 1335.86 218.927 1337.22 220.469C1338.59 222.01 1339.63 223.833 1340.34 225.938C1341.05 228.021 1341.4 230.302 1341.4 232.781V233.438C1341.4 235.896 1341.05 238.177 1340.34 240.281C1339.63 242.365 1338.59 244.188 1337.22 245.75C1335.86 247.292 1334.19 248.49 1332.22 249.344C1330.24 250.198 1327.97 250.625 1325.4 250.625C1322.84 250.625 1320.56 250.198 1318.56 249.344C1316.58 248.49 1314.9 247.292 1313.53 245.75C1312.17 244.188 1311.14 242.365 1310.43 240.281C1309.73 238.177 1309.37 235.896 1309.37 233.438ZM1318.37 232.781V233.438C1318.37 234.854 1318.5 236.177 1318.75 237.406C1319 238.635 1319.39 239.719 1319.93 240.656C1320.5 241.573 1321.23 242.292 1322.12 242.812C1323.02 243.333 1324.11 243.594 1325.4 243.594C1326.65 243.594 1327.73 243.333 1328.62 242.812C1329.52 242.292 1330.24 241.573 1330.78 240.656C1331.32 239.719 1331.72 238.635 1331.97 237.406C1332.24 236.177 1332.37 234.854 1332.37 233.438V232.781C1332.37 231.406 1332.24 230.115 1331.97 228.906C1331.72 227.677 1331.31 226.594 1330.75 225.656C1330.21 224.698 1329.49 223.948 1328.59 223.406C1327.69 222.865 1326.61 222.594 1325.34 222.594C1324.07 222.594 1322.99 222.865 1322.09 223.406C1321.22 223.948 1320.5 224.698 1319.93 225.656C1319.39 226.594 1319 227.677 1318.75 228.906C1318.5 230.115 1318.37 231.406 1318.37 232.781ZM1355.93 201.969V250H1346.93V201.969H1355.93ZM1377.25 216.188L1362.56 232.938L1354.68 240.906L1351.4 234.406L1357.65 226.469L1366.43 216.188H1377.25ZM1367.9 250L1357.9 234.375L1364.12 228.938L1378.28 250H1367.9ZM1389.65 242.406L1389.62 248.438C1389.62 250.75 1389.04 253.083 1387.87 255.438C1386.73 257.792 1385.27 259.719 1383.5 261.219L1378.81 258.812C1379.33 257.854 1379.84 256.896 1380.34 255.938C1380.84 254.979 1381.26 253.927 1381.59 252.781C1381.92 251.635 1382.09 250.333 1382.09 248.875V242.406H1389.65ZM232.841 333.625V293H241.903V341H233.747L232.841 333.625ZM211.466 324.5V323.844C211.466 321.26 211.757 318.917 212.341 316.812C212.924 314.688 213.778 312.865 214.903 311.344C216.028 309.823 217.414 308.646 219.06 307.812C220.705 306.979 222.58 306.562 224.685 306.562C226.664 306.562 228.393 306.979 229.872 307.812C231.372 308.646 232.643 309.833 233.685 311.375C234.747 312.896 235.601 314.698 236.247 316.781C236.893 318.844 237.362 321.104 237.653 323.562V325C237.362 327.354 236.893 329.542 236.247 331.562C235.601 333.583 234.747 335.354 233.685 336.875C232.643 338.375 231.372 339.542 229.872 340.375C228.372 341.208 226.622 341.625 224.622 341.625C222.518 341.625 220.643 341.198 218.997 340.344C217.372 339.49 215.997 338.292 214.872 336.75C213.768 335.208 212.924 333.396 212.341 331.312C211.757 329.229 211.466 326.958 211.466 324.5ZM220.466 323.844V324.5C220.466 325.896 220.57 327.198 220.778 328.406C221.007 329.615 221.372 330.688 221.872 331.625C222.393 332.542 223.06 333.26 223.872 333.781C224.705 334.281 225.716 334.531 226.903 334.531C228.445 334.531 229.716 334.188 230.716 333.5C231.716 332.792 232.476 331.823 232.997 330.594C233.539 329.365 233.851 327.948 233.935 326.344V322.25C233.872 320.938 233.685 319.76 233.372 318.719C233.08 317.656 232.643 316.75 232.06 316C231.497 315.25 230.789 314.667 229.935 314.25C229.101 313.833 228.112 313.625 226.966 313.625C225.799 313.625 224.799 313.896 223.966 314.438C223.132 314.958 222.455 315.677 221.935 316.594C221.435 317.51 221.06 318.594 220.81 319.844C220.58 321.073 220.466 322.406 220.466 323.844ZM264.497 341.625C261.872 341.625 259.518 341.208 257.435 340.375C255.351 339.521 253.58 338.344 252.122 336.844C250.685 335.344 249.58 333.604 248.81 331.625C248.039 329.625 247.653 327.5 247.653 325.25V324C247.653 321.438 248.018 319.094 248.747 316.969C249.476 314.844 250.518 313 251.872 311.438C253.247 309.875 254.914 308.677 256.872 307.844C258.83 306.99 261.039 306.562 263.497 306.562C265.893 306.562 268.018 306.958 269.872 307.75C271.726 308.542 273.278 309.667 274.528 311.125C275.799 312.583 276.757 314.333 277.403 316.375C278.049 318.396 278.372 320.646 278.372 323.125V326.875H251.497V320.875H269.528V320.188C269.528 318.938 269.299 317.823 268.841 316.844C268.403 315.844 267.737 315.052 266.841 314.469C265.945 313.885 264.799 313.594 263.403 313.594C262.216 313.594 261.195 313.854 260.341 314.375C259.487 314.896 258.789 315.625 258.247 316.562C257.726 317.5 257.33 318.604 257.06 319.875C256.81 321.125 256.685 322.5 256.685 324V325.25C256.685 326.604 256.872 327.854 257.247 329C257.643 330.146 258.195 331.135 258.903 331.969C259.632 332.802 260.507 333.448 261.528 333.906C262.57 334.365 263.747 334.594 265.06 334.594C266.685 334.594 268.195 334.281 269.591 333.656C271.007 333.01 272.226 332.042 273.247 330.75L277.622 335.5C276.914 336.521 275.945 337.5 274.716 338.438C273.507 339.375 272.049 340.146 270.341 340.75C268.632 341.333 266.685 341.625 264.497 341.625ZM319.403 354V314.094L320.56 307.188H328.466V354H319.403ZM298.028 324.438V323.781C298.028 321.198 298.31 318.854 298.872 316.75C299.455 314.625 300.31 312.812 301.435 311.312C302.56 309.792 303.935 308.625 305.56 307.812C307.205 306.979 309.101 306.562 311.247 306.562C313.31 306.562 315.091 306.979 316.591 307.812C318.091 308.646 319.351 309.823 320.372 311.344C321.414 312.865 322.247 314.656 322.872 316.719C323.497 318.781 323.976 321.042 324.31 323.5V324.938C323.997 327.292 323.518 329.479 322.872 331.5C322.247 333.521 321.414 335.292 320.372 336.812C319.351 338.333 318.08 339.521 316.56 340.375C315.06 341.208 313.268 341.625 311.185 341.625C309.08 341.625 307.205 341.198 305.56 340.344C303.935 339.469 302.56 338.26 301.435 336.719C300.31 335.177 299.455 333.365 298.872 331.281C298.31 329.177 298.028 326.896 298.028 324.438ZM307.028 323.781V324.438C307.028 325.833 307.143 327.146 307.372 328.375C307.601 329.583 307.966 330.656 308.466 331.594C308.987 332.531 309.653 333.271 310.466 333.812C311.278 334.333 312.278 334.594 313.466 334.594C315.112 334.594 316.435 334.24 317.435 333.531C318.455 332.802 319.205 331.812 319.685 330.562C320.185 329.312 320.476 327.885 320.56 326.281V322.188C320.497 320.875 320.32 319.698 320.028 318.656C319.757 317.594 319.341 316.688 318.778 315.938C318.237 315.188 317.528 314.615 316.653 314.219C315.799 313.802 314.757 313.594 313.528 313.594C312.362 313.594 311.362 313.854 310.528 314.375C309.695 314.896 309.018 315.625 308.497 316.562C307.997 317.479 307.622 318.552 307.372 319.781C307.143 321.01 307.028 322.344 307.028 323.781ZM355.56 332.906V307.188H364.56V341H356.091L355.56 332.906ZM356.56 325.969L359.216 325.906C359.216 328.156 358.955 330.25 358.435 332.188C357.914 334.104 357.132 335.771 356.091 337.188C355.049 338.583 353.737 339.677 352.153 340.469C350.57 341.24 348.705 341.625 346.56 341.625C344.914 341.625 343.393 341.396 341.997 340.938C340.622 340.458 339.435 339.719 338.435 338.719C337.455 337.698 336.685 336.396 336.122 334.812C335.58 333.208 335.31 331.281 335.31 329.031V307.188H344.31V329.094C344.31 330.094 344.424 330.938 344.653 331.625C344.903 332.312 345.247 332.875 345.685 333.312C346.122 333.75 346.632 334.062 347.216 334.25C347.82 334.438 348.487 334.531 349.216 334.531C351.07 334.531 352.528 334.156 353.591 333.406C354.674 332.656 355.435 331.635 355.872 330.344C356.33 329.031 356.56 327.573 356.56 325.969ZM369.997 324.438V323.781C369.997 321.302 370.351 319.021 371.06 316.938C371.768 314.833 372.799 313.01 374.153 311.469C375.507 309.927 377.174 308.729 379.153 307.875C381.132 307 383.403 306.562 385.966 306.562C388.528 306.562 390.81 307 392.81 307.875C394.81 308.729 396.487 309.927 397.841 311.469C399.216 313.01 400.257 314.833 400.966 316.938C401.674 319.021 402.028 321.302 402.028 323.781V324.438C402.028 326.896 401.674 329.177 400.966 331.281C400.257 333.365 399.216 335.188 397.841 336.75C396.487 338.292 394.82 339.49 392.841 340.344C390.862 341.198 388.591 341.625 386.028 341.625C383.466 341.625 381.185 341.198 379.185 340.344C377.205 339.49 375.528 338.292 374.153 336.75C372.799 335.188 371.768 333.365 371.06 331.281C370.351 329.177 369.997 326.896 369.997 324.438ZM378.997 323.781V324.438C378.997 325.854 379.122 327.177 379.372 328.406C379.622 329.635 380.018 330.719 380.56 331.656C381.122 332.573 381.851 333.292 382.747 333.812C383.643 334.333 384.737 334.594 386.028 334.594C387.278 334.594 388.351 334.333 389.247 333.812C390.143 333.292 390.862 332.573 391.403 331.656C391.945 330.719 392.341 329.635 392.591 328.406C392.862 327.177 392.997 325.854 392.997 324.438V323.781C392.997 322.406 392.862 321.115 392.591 319.906C392.341 318.677 391.935 317.594 391.372 316.656C390.83 315.698 390.112 314.948 389.216 314.406C388.32 313.865 387.237 313.594 385.966 313.594C384.695 313.594 383.612 313.865 382.716 314.406C381.841 314.948 381.122 315.698 380.56 316.656C380.018 317.594 379.622 318.677 379.372 319.906C379.122 321.115 378.997 322.406 378.997 323.781ZM417.06 307.188V341H408.028V307.188H417.06ZM407.466 298.375C407.466 297.062 407.924 295.979 408.841 295.125C409.757 294.271 410.987 293.844 412.528 293.844C414.049 293.844 415.268 294.271 416.185 295.125C417.122 295.979 417.591 297.062 417.591 298.375C417.591 299.688 417.122 300.771 416.185 301.625C415.268 302.479 414.049 302.906 412.528 302.906C410.987 302.906 409.757 302.479 408.841 301.625C407.924 300.771 407.466 299.688 407.466 298.375ZM458.685 333.375V318.312C458.685 317.229 458.507 316.302 458.153 315.531C457.799 314.74 457.247 314.125 456.497 313.688C455.768 313.25 454.82 313.031 453.653 313.031C452.653 313.031 451.789 313.208 451.06 313.562C450.33 313.896 449.768 314.385 449.372 315.031C448.976 315.656 448.778 316.396 448.778 317.25H439.778C439.778 315.812 440.112 314.448 440.778 313.156C441.445 311.865 442.414 310.729 443.685 309.75C444.955 308.75 446.466 307.969 448.216 307.406C449.987 306.844 451.966 306.562 454.153 306.562C456.778 306.562 459.112 307 461.153 307.875C463.195 308.75 464.799 310.062 465.966 311.812C467.153 313.562 467.747 315.75 467.747 318.375V332.844C467.747 334.698 467.862 336.219 468.091 337.406C468.32 338.573 468.653 339.594 469.091 340.469V341H459.997C459.56 340.083 459.226 338.938 458.997 337.562C458.789 336.167 458.685 334.771 458.685 333.375ZM459.872 320.406L459.935 325.5H454.903C453.716 325.5 452.685 325.635 451.81 325.906C450.935 326.177 450.216 326.562 449.653 327.062C449.091 327.542 448.674 328.104 448.403 328.75C448.153 329.396 448.028 330.104 448.028 330.875C448.028 331.646 448.205 332.344 448.56 332.969C448.914 333.573 449.424 334.052 450.091 334.406C450.757 334.74 451.539 334.906 452.435 334.906C453.789 334.906 454.966 334.635 455.966 334.094C456.966 333.552 457.737 332.885 458.278 332.094C458.841 331.302 459.132 330.552 459.153 329.844L461.528 333.656C461.195 334.51 460.737 335.396 460.153 336.312C459.591 337.229 458.872 338.094 457.997 338.906C457.122 339.698 456.07 340.354 454.841 340.875C453.612 341.375 452.153 341.625 450.466 341.625C448.32 341.625 446.372 341.198 444.622 340.344C442.893 339.469 441.518 338.271 440.497 336.75C439.497 335.208 438.997 333.458 438.997 331.5C438.997 329.729 439.33 328.156 439.997 326.781C440.664 325.406 441.643 324.25 442.935 323.312C444.247 322.354 445.882 321.635 447.841 321.156C449.799 320.656 452.07 320.406 454.653 320.406H459.872ZM492.966 331.656C492.966 331.01 492.778 330.427 492.403 329.906C492.028 329.385 491.33 328.906 490.31 328.469C489.31 328.01 487.862 327.594 485.966 327.219C484.257 326.844 482.664 326.375 481.185 325.812C479.726 325.229 478.455 324.531 477.372 323.719C476.31 322.906 475.476 321.948 474.872 320.844C474.268 319.719 473.966 318.438 473.966 317C473.966 315.583 474.268 314.25 474.872 313C475.497 311.75 476.382 310.646 477.528 309.688C478.695 308.708 480.112 307.948 481.778 307.406C483.466 306.844 485.362 306.562 487.466 306.562C490.403 306.562 492.924 307.031 495.028 307.969C497.153 308.906 498.778 310.198 499.903 311.844C501.049 313.469 501.622 315.323 501.622 317.406H492.622C492.622 316.531 492.435 315.75 492.06 315.062C491.705 314.354 491.143 313.802 490.372 313.406C489.622 312.99 488.643 312.781 487.435 312.781C486.435 312.781 485.57 312.958 484.841 313.312C484.112 313.646 483.549 314.104 483.153 314.688C482.778 315.25 482.591 315.875 482.591 316.562C482.591 317.083 482.695 317.552 482.903 317.969C483.132 318.365 483.497 318.729 483.997 319.062C484.497 319.396 485.143 319.708 485.935 320C486.747 320.271 487.747 320.521 488.935 320.75C491.372 321.25 493.549 321.906 495.466 322.719C497.382 323.51 498.903 324.594 500.028 325.969C501.153 327.323 501.716 329.104 501.716 331.312C501.716 332.812 501.382 334.188 500.716 335.438C500.049 336.688 499.091 337.781 497.841 338.719C496.591 339.635 495.091 340.354 493.341 340.875C491.612 341.375 489.664 341.625 487.497 341.625C484.351 341.625 481.685 341.062 479.497 339.938C477.33 338.812 475.685 337.385 474.56 335.656C473.455 333.906 472.903 332.115 472.903 330.281H481.435C481.476 331.51 481.789 332.5 482.372 333.25C482.976 334 483.737 334.542 484.653 334.875C485.591 335.208 486.601 335.375 487.685 335.375C488.851 335.375 489.82 335.219 490.591 334.906C491.362 334.573 491.945 334.135 492.341 333.594C492.757 333.031 492.966 332.385 492.966 331.656ZM525.31 317.938V325H507.653V317.938H525.31ZM549.372 307.188V313.562H529.685V307.188H549.372ZM534.56 298.844H543.56V330.812C543.56 331.792 543.685 332.542 543.935 333.062C544.205 333.583 544.601 333.948 545.122 334.156C545.643 334.344 546.299 334.438 547.091 334.438C547.653 334.438 548.153 334.417 548.591 334.375C549.049 334.312 549.435 334.25 549.747 334.188L549.778 340.812C549.007 341.062 548.174 341.26 547.278 341.406C546.382 341.552 545.393 341.625 544.31 341.625C542.33 341.625 540.601 341.302 539.122 340.656C537.664 339.99 536.539 338.927 535.747 337.469C534.955 336.01 534.56 334.094 534.56 331.719V298.844ZM574.497 332.906V307.188H583.497V341H575.028L574.497 332.906ZM575.497 325.969L578.153 325.906C578.153 328.156 577.893 330.25 577.372 332.188C576.851 334.104 576.07 335.771 575.028 337.188C573.987 338.583 572.674 339.677 571.091 340.469C569.507 341.24 567.643 341.625 565.497 341.625C563.851 341.625 562.33 341.396 560.935 340.938C559.56 340.458 558.372 339.719 557.372 338.719C556.393 337.698 555.622 336.396 555.06 334.812C554.518 333.208 554.247 331.281 554.247 329.031V307.188H563.247V329.094C563.247 330.094 563.362 330.938 563.591 331.625C563.841 332.312 564.185 332.875 564.622 333.312C565.06 333.75 565.57 334.062 566.153 334.25C566.757 334.438 567.424 334.531 568.153 334.531C570.007 334.531 571.466 334.156 572.528 333.406C573.612 332.656 574.372 331.635 574.81 330.344C575.268 329.031 575.497 327.573 575.497 325.969ZM606.31 293H615.31V333.25L614.403 341H606.31V293ZM636.716 323.75V324.406C636.716 326.927 636.445 329.24 635.903 331.344C635.382 333.448 634.57 335.271 633.466 336.812C632.362 338.333 630.987 339.521 629.341 340.375C627.716 341.208 625.799 341.625 623.591 341.625C621.528 341.625 619.737 341.208 618.216 340.375C616.716 339.542 615.455 338.365 614.435 336.844C613.414 335.323 612.591 333.542 611.966 331.5C611.341 329.458 610.872 327.229 610.56 324.812V323.375C610.872 320.958 611.341 318.729 611.966 316.688C612.591 314.646 613.414 312.865 614.435 311.344C615.455 309.823 616.716 308.646 618.216 307.812C619.716 306.979 621.487 306.562 623.528 306.562C625.757 306.562 627.695 306.99 629.341 307.844C631.007 308.677 632.382 309.865 633.466 311.406C634.57 312.927 635.382 314.74 635.903 316.844C636.445 318.927 636.716 321.229 636.716 323.75ZM627.716 324.406V323.75C627.716 322.375 627.612 321.083 627.403 319.875C627.216 318.646 626.882 317.573 626.403 316.656C625.924 315.719 625.268 314.979 624.435 314.438C623.622 313.896 622.57 313.625 621.278 313.625C620.049 313.625 619.007 313.833 618.153 314.25C617.299 314.667 616.591 315.25 616.028 316C615.487 316.75 615.08 317.646 614.81 318.688C614.539 319.708 614.372 320.833 614.31 322.062V326.156C614.372 327.802 614.643 329.26 615.122 330.531C615.622 331.781 616.372 332.771 617.372 333.5C618.393 334.208 619.716 334.562 621.341 334.562C622.612 334.562 623.664 334.312 624.497 333.812C625.33 333.312 625.976 332.604 626.435 331.688C626.914 330.771 627.247 329.698 627.435 328.469C627.622 327.219 627.716 325.865 627.716 324.406ZM657.872 341.625C655.247 341.625 652.893 341.208 650.81 340.375C648.726 339.521 646.955 338.344 645.497 336.844C644.06 335.344 642.955 333.604 642.185 331.625C641.414 329.625 641.028 327.5 641.028 325.25V324C641.028 321.438 641.393 319.094 642.122 316.969C642.851 314.844 643.893 313 645.247 311.438C646.622 309.875 648.289 308.677 650.247 307.844C652.205 306.99 654.414 306.562 656.872 306.562C659.268 306.562 661.393 306.958 663.247 307.75C665.101 308.542 666.653 309.667 667.903 311.125C669.174 312.583 670.132 314.333 670.778 316.375C671.424 318.396 671.747 320.646 671.747 323.125V326.875H644.872V320.875H662.903V320.188C662.903 318.938 662.674 317.823 662.216 316.844C661.778 315.844 661.112 315.052 660.216 314.469C659.32 313.885 658.174 313.594 656.778 313.594C655.591 313.594 654.57 313.854 653.716 314.375C652.862 314.896 652.164 315.625 651.622 316.562C651.101 317.5 650.705 318.604 650.435 319.875C650.185 321.125 650.06 322.5 650.06 324V325.25C650.06 326.604 650.247 327.854 650.622 329C651.018 330.146 651.57 331.135 652.278 331.969C653.007 332.802 653.882 333.448 654.903 333.906C655.945 334.365 657.122 334.594 658.435 334.594C660.06 334.594 661.57 334.281 662.966 333.656C664.382 333.01 665.601 332.042 666.622 330.75L670.997 335.5C670.289 336.521 669.32 337.5 668.091 338.438C666.882 339.375 665.424 340.146 663.716 340.75C662.007 341.333 660.06 341.625 657.872 341.625ZM695.153 331.656C695.153 331.01 694.966 330.427 694.591 329.906C694.216 329.385 693.518 328.906 692.497 328.469C691.497 328.01 690.049 327.594 688.153 327.219C686.445 326.844 684.851 326.375 683.372 325.812C681.914 325.229 680.643 324.531 679.56 323.719C678.497 322.906 677.664 321.948 677.06 320.844C676.455 319.719 676.153 318.438 676.153 317C676.153 315.583 676.455 314.25 677.06 313C677.685 311.75 678.57 310.646 679.716 309.688C680.882 308.708 682.299 307.948 683.966 307.406C685.653 306.844 687.549 306.562 689.653 306.562C692.591 306.562 695.112 307.031 697.216 307.969C699.341 308.906 700.966 310.198 702.091 311.844C703.237 313.469 703.81 315.323 703.81 317.406H694.81C694.81 316.531 694.622 315.75 694.247 315.062C693.893 314.354 693.33 313.802 692.56 313.406C691.81 312.99 690.83 312.781 689.622 312.781C688.622 312.781 687.757 312.958 687.028 313.312C686.299 313.646 685.737 314.104 685.341 314.688C684.966 315.25 684.778 315.875 684.778 316.562C684.778 317.083 684.882 317.552 685.091 317.969C685.32 318.365 685.685 318.729 686.185 319.062C686.685 319.396 687.33 319.708 688.122 320C688.935 320.271 689.935 320.521 691.122 320.75C693.56 321.25 695.737 321.906 697.653 322.719C699.57 323.51 701.091 324.594 702.216 325.969C703.341 327.323 703.903 329.104 703.903 331.312C703.903 332.812 703.57 334.188 702.903 335.438C702.237 336.688 701.278 337.781 700.028 338.719C698.778 339.635 697.278 340.354 695.528 340.875C693.799 341.375 691.851 341.625 689.685 341.625C686.539 341.625 683.872 341.062 681.685 339.938C679.518 338.812 677.872 337.385 676.747 335.656C675.643 333.906 675.091 332.115 675.091 330.281H683.622C683.664 331.51 683.976 332.5 684.56 333.25C685.164 334 685.924 334.542 686.841 334.875C687.778 335.208 688.789 335.375 689.872 335.375C691.039 335.375 692.007 335.219 692.778 334.906C693.549 334.573 694.132 334.135 694.528 333.594C694.945 333.031 695.153 332.385 695.153 331.656ZM708.31 324.438V323.781C708.31 321.302 708.664 319.021 709.372 316.938C710.08 314.833 711.112 313.01 712.466 311.469C713.82 309.927 715.487 308.729 717.466 307.875C719.445 307 721.716 306.562 724.278 306.562C726.841 306.562 729.122 307 731.122 307.875C733.122 308.729 734.799 309.927 736.153 311.469C737.528 313.01 738.57 314.833 739.278 316.938C739.987 319.021 740.341 321.302 740.341 323.781V324.438C740.341 326.896 739.987 329.177 739.278 331.281C738.57 333.365 737.528 335.188 736.153 336.75C734.799 338.292 733.132 339.49 731.153 340.344C729.174 341.198 726.903 341.625 724.341 341.625C721.778 341.625 719.497 341.198 717.497 340.344C715.518 339.49 713.841 338.292 712.466 336.75C711.112 335.188 710.08 333.365 709.372 331.281C708.664 329.177 708.31 326.896 708.31 324.438ZM717.31 323.781V324.438C717.31 325.854 717.435 327.177 717.685 328.406C717.935 329.635 718.33 330.719 718.872 331.656C719.435 332.573 720.164 333.292 721.06 333.812C721.955 334.333 723.049 334.594 724.341 334.594C725.591 334.594 726.664 334.333 727.56 333.812C728.455 333.292 729.174 332.573 729.716 331.656C730.257 330.719 730.653 329.635 730.903 328.406C731.174 327.177 731.31 325.854 731.31 324.438V323.781C731.31 322.406 731.174 321.115 730.903 319.906C730.653 318.677 730.247 317.594 729.685 316.656C729.143 315.698 728.424 314.948 727.528 314.406C726.632 313.865 725.549 313.594 724.278 313.594C723.007 313.594 721.924 313.865 721.028 314.406C720.153 314.948 719.435 315.698 718.872 316.656C718.33 317.594 717.935 318.677 717.685 319.906C717.435 321.115 717.31 322.406 717.31 323.781ZM755.372 307.188V341H746.341V307.188H755.372ZM745.778 298.375C745.778 297.062 746.237 295.979 747.153 295.125C748.07 294.271 749.299 293.844 750.841 293.844C752.362 293.844 753.58 294.271 754.497 295.125C755.435 295.979 755.903 297.062 755.903 298.375C755.903 299.688 755.435 300.771 754.497 301.625C753.58 302.479 752.362 302.906 750.841 302.906C749.299 302.906 748.07 302.479 747.153 301.625C746.237 300.771 745.778 299.688 745.778 298.375ZM771.622 314.406V341H762.622V307.188H771.06L771.622 314.406ZM770.31 322.906H767.872C767.872 320.406 768.195 318.156 768.841 316.156C769.487 314.135 770.393 312.417 771.56 311C772.726 309.562 774.112 308.469 775.716 307.719C777.341 306.948 779.153 306.562 781.153 306.562C782.737 306.562 784.185 306.792 785.497 307.25C786.81 307.708 787.935 308.438 788.872 309.438C789.83 310.438 790.56 311.76 791.06 313.406C791.58 315.052 791.841 317.062 791.841 319.438V341H782.778V319.406C782.778 317.906 782.57 316.74 782.153 315.906C781.737 315.073 781.122 314.49 780.31 314.156C779.518 313.802 778.539 313.625 777.372 313.625C776.164 313.625 775.112 313.865 774.216 314.344C773.341 314.823 772.612 315.49 772.028 316.344C771.466 317.177 771.039 318.156 770.747 319.281C770.455 320.406 770.31 321.615 770.31 322.906ZM832.872 333.375V318.312C832.872 317.229 832.695 316.302 832.341 315.531C831.987 314.74 831.435 314.125 830.685 313.688C829.955 313.25 829.007 313.031 827.841 313.031C826.841 313.031 825.976 313.208 825.247 313.562C824.518 313.896 823.955 314.385 823.56 315.031C823.164 315.656 822.966 316.396 822.966 317.25H813.966C813.966 315.812 814.299 314.448 814.966 313.156C815.632 311.865 816.601 310.729 817.872 309.75C819.143 308.75 820.653 307.969 822.403 307.406C824.174 306.844 826.153 306.562 828.341 306.562C830.966 306.562 833.299 307 835.341 307.875C837.382 308.75 838.987 310.062 840.153 311.812C841.341 313.562 841.935 315.75 841.935 318.375V332.844C841.935 334.698 842.049 336.219 842.278 337.406C842.507 338.573 842.841 339.594 843.278 340.469V341H834.185C833.747 340.083 833.414 338.938 833.185 337.562C832.976 336.167 832.872 334.771 832.872 333.375ZM834.06 320.406L834.122 325.5H829.091C827.903 325.5 826.872 325.635 825.997 325.906C825.122 326.177 824.403 326.562 823.841 327.062C823.278 327.542 822.862 328.104 822.591 328.75C822.341 329.396 822.216 330.104 822.216 330.875C822.216 331.646 822.393 332.344 822.747 332.969C823.101 333.573 823.612 334.052 824.278 334.406C824.945 334.74 825.726 334.906 826.622 334.906C827.976 334.906 829.153 334.635 830.153 334.094C831.153 333.552 831.924 332.885 832.466 332.094C833.028 331.302 833.32 330.552 833.341 329.844L835.716 333.656C835.382 334.51 834.924 335.396 834.341 336.312C833.778 337.229 833.06 338.094 832.185 338.906C831.31 339.698 830.257 340.354 829.028 340.875C827.799 341.375 826.341 341.625 824.653 341.625C822.507 341.625 820.56 341.198 818.81 340.344C817.08 339.469 815.705 338.271 814.685 336.75C813.685 335.208 813.185 333.458 813.185 331.5C813.185 329.729 813.518 328.156 814.185 326.781C814.851 325.406 815.83 324.25 817.122 323.312C818.435 322.354 820.07 321.635 822.028 321.156C823.987 320.656 826.257 320.406 828.841 320.406H834.06ZM868.872 332.906V307.188H877.872V341H869.403L868.872 332.906ZM869.872 325.969L872.528 325.906C872.528 328.156 872.268 330.25 871.747 332.188C871.226 334.104 870.445 335.771 869.403 337.188C868.362 338.583 867.049 339.677 865.466 340.469C863.882 341.24 862.018 341.625 859.872 341.625C858.226 341.625 856.705 341.396 855.31 340.938C853.935 340.458 852.747 339.719 851.747 338.719C850.768 337.698 849.997 336.396 849.435 334.812C848.893 333.208 848.622 331.281 848.622 329.031V307.188H857.622V329.094C857.622 330.094 857.737 330.938 857.966 331.625C858.216 332.312 858.56 332.875 858.997 333.312C859.435 333.75 859.945 334.062 860.528 334.25C861.132 334.438 861.799 334.531 862.528 334.531C864.382 334.531 865.841 334.156 866.903 333.406C867.987 332.656 868.747 331.635 869.185 330.344C869.643 329.031 869.872 327.573 869.872 325.969ZM885.247 307.188H894.278V343.031C894.278 345.531 893.82 347.646 892.903 349.375C891.987 351.104 890.664 352.417 888.935 353.312C887.205 354.208 885.112 354.656 882.653 354.656C881.882 354.656 881.132 354.615 880.403 354.531C879.653 354.448 878.882 354.312 878.091 354.125L878.122 347.219C878.622 347.302 879.112 347.365 879.591 347.406C880.049 347.469 880.518 347.5 880.997 347.5C881.935 347.5 882.716 347.344 883.341 347.031C883.966 346.719 884.435 346.229 884.747 345.562C885.08 344.917 885.247 344.073 885.247 343.031V307.188ZM884.528 298.375C884.528 297.062 884.987 295.979 885.903 295.125C886.841 294.271 888.07 293.844 889.591 293.844C891.132 293.844 892.362 294.271 893.278 295.125C894.195 295.979 894.653 297.062 894.653 298.375C894.653 299.688 894.195 300.771 893.278 301.625C892.362 302.479 891.132 302.906 889.591 302.906C888.07 302.906 886.841 302.479 885.903 301.625C884.987 300.771 884.528 299.688 884.528 298.375ZM899.997 324.438V323.781C899.997 321.302 900.351 319.021 901.06 316.938C901.768 314.833 902.799 313.01 904.153 311.469C905.507 309.927 907.174 308.729 909.153 307.875C911.132 307 913.403 306.562 915.966 306.562C918.528 306.562 920.81 307 922.81 307.875C924.81 308.729 926.487 309.927 927.841 311.469C929.216 313.01 930.257 314.833 930.966 316.938C931.674 319.021 932.028 321.302 932.028 323.781V324.438C932.028 326.896 931.674 329.177 930.966 331.281C930.257 333.365 929.216 335.188 927.841 336.75C926.487 338.292 924.82 339.49 922.841 340.344C920.862 341.198 918.591 341.625 916.028 341.625C913.466 341.625 911.185 341.198 909.185 340.344C907.205 339.49 905.528 338.292 904.153 336.75C902.799 335.188 901.768 333.365 901.06 331.281C900.351 329.177 899.997 326.896 899.997 324.438ZM908.997 323.781V324.438C908.997 325.854 909.122 327.177 909.372 328.406C909.622 329.635 910.018 330.719 910.56 331.656C911.122 332.573 911.851 333.292 912.747 333.812C913.643 334.333 914.737 334.594 916.028 334.594C917.278 334.594 918.351 334.333 919.247 333.812C920.143 333.292 920.862 332.573 921.403 331.656C921.945 330.719 922.341 329.635 922.591 328.406C922.862 327.177 922.997 325.854 922.997 324.438V323.781C922.997 322.406 922.862 321.115 922.591 319.906C922.341 318.677 921.935 317.594 921.372 316.656C920.83 315.698 920.112 314.948 919.216 314.406C918.32 313.865 917.237 313.594 915.966 313.594C914.695 313.594 913.612 313.865 912.716 314.406C911.841 314.948 911.122 315.698 910.56 316.656C910.018 317.594 909.622 318.677 909.372 319.906C909.122 321.115 908.997 322.406 908.997 323.781ZM957.56 332.906V307.188H966.56V341H958.091L957.56 332.906ZM958.56 325.969L961.216 325.906C961.216 328.156 960.955 330.25 960.435 332.188C959.914 334.104 959.132 335.771 958.091 337.188C957.049 338.583 955.737 339.677 954.153 340.469C952.57 341.24 950.705 341.625 948.56 341.625C946.914 341.625 945.393 341.396 943.997 340.938C942.622 340.458 941.435 339.719 940.435 338.719C939.455 337.698 938.685 336.396 938.122 334.812C937.58 333.208 937.31 331.281 937.31 329.031V307.188H946.31V329.094C946.31 330.094 946.424 330.938 946.653 331.625C946.903 332.312 947.247 332.875 947.685 333.312C948.122 333.75 948.632 334.062 949.216 334.25C949.82 334.438 950.487 334.531 951.216 334.531C953.07 334.531 954.528 334.156 955.591 333.406C956.674 332.656 957.435 331.635 957.872 330.344C958.33 329.031 958.56 327.573 958.56 325.969ZM982.435 314.562V341H973.435V307.188H981.903L982.435 314.562ZM992.622 306.969L992.466 315.312C992.028 315.25 991.497 315.198 990.872 315.156C990.268 315.094 989.716 315.062 989.216 315.062C987.945 315.062 986.841 315.229 985.903 315.562C984.987 315.875 984.216 316.344 983.591 316.969C982.987 317.594 982.528 318.354 982.216 319.25C981.924 320.146 981.757 321.167 981.716 322.312L979.903 321.75C979.903 319.562 980.122 317.552 980.56 315.719C980.997 313.865 981.632 312.25 982.466 310.875C983.32 309.5 984.362 308.438 985.591 307.688C986.82 306.938 988.226 306.562 989.81 306.562C990.31 306.562 990.82 306.604 991.341 306.688C991.862 306.75 992.289 306.844 992.622 306.969ZM1016.22 333.625V293H1025.28V341H1017.12L1016.22 333.625ZM994.841 324.5V323.844C994.841 321.26 995.132 318.917 995.716 316.812C996.299 314.688 997.153 312.865 998.278 311.344C999.403 309.823 1000.79 308.646 1002.43 307.812C1004.08 306.979 1005.96 306.562 1008.06 306.562C1010.04 306.562 1011.77 306.979 1013.25 307.812C1014.75 308.646 1016.02 309.833 1017.06 311.375C1018.12 312.896 1018.98 314.698 1019.62 316.781C1020.27 318.844 1020.74 321.104 1021.03 323.562V325C1020.74 327.354 1020.27 329.542 1019.62 331.562C1018.98 333.583 1018.12 335.354 1017.06 336.875C1016.02 338.375 1014.75 339.542 1013.25 340.375C1011.75 341.208 1010 341.625 1008 341.625C1005.89 341.625 1004.02 341.198 1002.37 340.344C1000.75 339.49 999.372 338.292 998.247 336.75C997.143 335.208 996.299 333.396 995.716 331.312C995.132 329.229 994.841 326.958 994.841 324.5ZM1003.84 323.844V324.5C1003.84 325.896 1003.94 327.198 1004.15 328.406C1004.38 329.615 1004.75 330.688 1005.25 331.625C1005.77 332.542 1006.43 333.26 1007.25 333.781C1008.08 334.281 1009.09 334.531 1010.28 334.531C1011.82 334.531 1013.09 334.188 1014.09 333.5C1015.09 332.792 1015.85 331.823 1016.37 330.594C1016.91 329.365 1017.23 327.948 1017.31 326.344V322.25C1017.25 320.938 1017.06 319.76 1016.75 318.719C1016.46 317.656 1016.02 316.75 1015.43 316C1014.87 315.25 1014.16 314.667 1013.31 314.25C1012.48 313.833 1011.49 313.625 1010.34 313.625C1009.17 313.625 1008.17 313.896 1007.34 314.438C1006.51 314.958 1005.83 315.677 1005.31 316.594C1004.81 317.51 1004.43 318.594 1004.18 319.844C1003.96 321.073 1003.84 322.406 1003.84 323.844ZM1040.53 293V297.75C1040.53 299.104 1040.27 300.5 1039.75 301.938C1039.25 303.375 1038.57 304.74 1037.72 306.031C1036.86 307.302 1035.92 308.385 1034.9 309.281L1030.68 306.844C1031.46 305.615 1032.11 304.281 1032.65 302.844C1033.19 301.385 1033.47 299.698 1033.47 297.781V293H1040.53ZM1056.09 293V341H1047.09V293H1056.09ZM1054.81 322.906H1052.34C1052.36 320.552 1052.67 318.385 1053.28 316.406C1053.88 314.406 1054.75 312.677 1055.87 311.219C1057 309.74 1058.34 308.594 1059.9 307.781C1061.49 306.969 1063.24 306.562 1065.15 306.562C1066.82 306.562 1068.33 306.802 1069.68 307.281C1071.06 307.74 1072.24 308.49 1073.22 309.531C1074.22 310.552 1074.99 311.896 1075.53 313.562C1076.07 315.229 1076.34 317.25 1076.34 319.625V341H1067.28V319.562C1067.28 318.062 1067.06 316.885 1066.62 316.031C1066.21 315.156 1065.59 314.542 1064.78 314.188C1063.99 313.812 1063.01 313.625 1061.84 313.625C1060.55 313.625 1059.44 313.865 1058.53 314.344C1057.63 314.823 1056.91 315.49 1056.37 316.344C1055.83 317.177 1055.43 318.156 1055.18 319.281C1054.93 320.406 1054.81 321.615 1054.81 322.906ZM1103.18 332.906V307.188H1112.18V341H1103.72L1103.18 332.906ZM1104.18 325.969L1106.84 325.906C1106.84 328.156 1106.58 330.25 1106.06 332.188C1105.54 334.104 1104.76 335.771 1103.72 337.188C1102.67 338.583 1101.36 339.677 1099.78 340.469C1098.19 341.24 1096.33 341.625 1094.18 341.625C1092.54 341.625 1091.02 341.396 1089.62 340.938C1088.25 340.458 1087.06 339.719 1086.06 338.719C1085.08 337.698 1084.31 336.396 1083.75 334.812C1083.21 333.208 1082.93 331.281 1082.93 329.031V307.188H1091.93V329.094C1091.93 330.094 1092.05 330.938 1092.28 331.625C1092.53 332.312 1092.87 332.875 1093.31 333.312C1093.75 333.75 1094.26 334.062 1094.84 334.25C1095.44 334.438 1096.11 334.531 1096.84 334.531C1098.69 334.531 1100.15 334.156 1101.22 333.406C1102.3 332.656 1103.06 331.635 1103.5 330.344C1103.96 329.031 1104.18 327.573 1104.18 325.969ZM1128.56 307.188V341H1119.53V307.188H1128.56ZM1118.97 298.375C1118.97 297.062 1119.42 295.979 1120.34 295.125C1121.26 294.271 1122.49 293.844 1124.03 293.844C1125.55 293.844 1126.77 294.271 1127.68 295.125C1128.62 295.979 1129.09 297.062 1129.09 298.375C1129.09 299.688 1128.62 300.771 1127.68 301.625C1126.77 302.479 1125.55 302.906 1124.03 302.906C1122.49 302.906 1121.26 302.479 1120.34 301.625C1119.42 300.771 1118.97 299.688 1118.97 298.375ZM1167.28 327.094H1159.31C1159.33 325.219 1159.48 323.604 1159.75 322.25C1160.04 320.875 1160.53 319.635 1161.22 318.531C1161.92 317.427 1162.86 316.333 1164.03 315.25C1165.01 314.375 1165.86 313.542 1166.59 312.75C1167.32 311.958 1167.89 311.146 1168.31 310.312C1168.73 309.458 1168.93 308.51 1168.93 307.469C1168.93 306.26 1168.75 305.26 1168.37 304.469C1168.02 303.656 1167.48 303.042 1166.75 302.625C1166.04 302.208 1165.14 302 1164.06 302C1163.16 302 1162.33 302.198 1161.56 302.594C1160.79 302.969 1160.15 303.552 1159.65 304.344C1159.17 305.135 1158.92 306.177 1158.9 307.469H1149.84C1149.9 304.615 1150.56 302.26 1151.81 300.406C1153.08 298.531 1154.78 297.146 1156.9 296.25C1159.03 295.333 1161.41 294.875 1164.06 294.875C1166.98 294.875 1169.48 295.354 1171.56 296.312C1173.64 297.25 1175.24 298.635 1176.34 300.469C1177.44 302.281 1178 304.49 1178 307.094C1178 308.906 1177.64 310.521 1176.93 311.938C1176.23 313.333 1175.3 314.635 1174.15 315.844C1173.01 317.052 1171.75 318.302 1170.37 319.594C1169.18 320.656 1168.37 321.771 1167.93 322.938C1167.52 324.104 1167.3 325.49 1167.28 327.094ZM1158.37 336.75C1158.37 335.417 1158.83 334.312 1159.75 333.438C1160.66 332.542 1161.89 332.094 1163.43 332.094C1164.96 332.094 1166.17 332.542 1167.09 333.438C1168.03 334.312 1168.5 335.417 1168.5 336.75C1168.5 338.042 1168.03 339.135 1167.09 340.031C1166.17 340.927 1164.96 341.375 1163.43 341.375C1161.89 341.375 1160.66 340.927 1159.75 340.031C1158.83 339.135 1158.37 338.042 1158.37 336.75Z" fill="#8A7B66"/>
<rect y="67.6487" width="330.84" height="82.6203" rx="41.3102" transform="rotate(-10.2444 0 67.6487)" fill="#E2826A"/>
<path d="M77.9366 77.0784L83.9432 110.671L75.8451 112.119L69.8385 78.5264L77.9366 77.0784ZM88.0419 75.2714L89.1599 81.5238L61.0818 86.5445L59.9638 80.2921L88.0419 75.2714ZM89.1166 97.1266L89.0299 96.6421C88.7026 94.8118 88.663 93.0808 88.9109 91.4492C89.1561 89.8022 89.6845 88.3188 90.4961 86.9991C91.3077 85.6794 92.4031 84.5708 93.7823 83.6734C95.1588 82.7606 96.8237 82.1296 98.7771 81.7803C100.746 81.4283 102.534 81.4419 104.141 81.8211C105.762 82.1822 107.181 82.8411 108.4 83.7978C109.618 84.7545 110.628 85.9628 111.429 87.4228C112.227 88.8673 112.789 90.5048 113.117 92.3352L113.203 92.8197C113.528 94.6346 113.567 96.3656 113.322 98.0126C113.074 99.6442 112.546 101.128 111.737 102.463C110.925 103.782 109.83 104.891 108.451 105.788C107.072 106.686 105.405 107.309 103.452 107.658C101.499 108.008 99.7118 108.002 98.0917 107.641C96.4716 107.28 95.0522 106.621 93.8336 105.664C92.6121 104.692 91.6024 103.484 90.8045 102.039C90.0037 100.579 89.4411 98.9416 89.1166 97.1266ZM96.805 95.2518L96.8917 95.7363C97.0594 96.6746 97.2854 97.5389 97.5696 98.3294C97.8538 99.1198 98.2124 99.7938 98.6454 100.351C99.0757 100.893 99.5979 101.284 100.212 101.523C100.826 101.763 101.549 101.808 102.379 101.66C103.195 101.514 103.841 101.224 104.319 100.789C104.812 100.352 105.167 99.8043 105.382 99.1466C105.595 98.4736 105.698 97.7172 105.691 96.8772C105.683 96.0373 105.596 95.1482 105.428 94.2099L105.342 93.7254C105.179 92.818 104.957 91.9767 104.676 91.2016C104.392 90.4112 104.033 89.7372 103.6 89.1797C103.164 88.6069 102.638 88.193 102.021 87.9383C101.404 87.6835 100.68 87.6304 99.8497 87.7789C99.0345 87.9247 98.3817 88.224 97.8912 88.6767C97.4161 89.1268 97.0735 89.696 96.8632 90.3843C96.6503 91.0573 96.5474 91.8138 96.5548 92.6538C96.5594 93.4783 96.6428 94.3444 96.805 95.2518ZM123.176 83.3461L126.695 103.026L118.92 104.416L114.456 79.453L121.747 78.1493L123.176 83.3461ZM123.364 89.8599L121.596 90.2237C121.283 88.4703 121.201 86.8181 121.353 85.2673C121.504 83.7165 121.89 82.3221 122.51 81.0843C123.129 79.8465 123.978 78.8218 125.055 78.0101C126.147 77.1958 127.478 76.6483 129.047 76.3678C130.139 76.1725 131.161 76.1643 132.114 76.3432C133.064 76.5066 133.925 76.8844 134.698 77.4764C135.467 78.0531 136.122 78.8725 136.661 79.9348C137.213 80.979 137.627 82.2778 137.905 83.8313L140.884 100.489L133.109 101.879L130.308 86.2137C130.118 85.1524 129.852 84.3746 129.509 83.8802C129.182 83.3832 128.779 83.0822 128.3 82.9774C127.821 82.8726 127.259 82.8779 126.613 82.9934C125.936 83.1145 125.356 83.3769 124.873 83.7808C124.389 84.1847 124.005 84.6978 123.719 85.3203C123.446 85.9247 123.276 86.6139 123.208 87.3879C123.156 88.1592 123.208 88.9832 123.364 89.8599ZM137.623 87.3104L135.462 87.7443C135.149 85.9909 135.052 84.3415 135.173 82.7962C135.308 81.2481 135.671 79.8579 136.26 78.6256C136.865 77.3905 137.706 76.3671 138.783 75.5555C139.86 74.7439 141.183 74.1978 142.752 73.9173C143.89 73.7137 144.966 73.6959 145.98 73.8638C146.994 74.0316 147.915 74.4305 148.742 75.0604C149.568 75.6904 150.286 76.5939 150.893 77.771C151.497 78.9327 151.962 80.421 152.287 82.236L155.096 97.9477L147.298 99.3421L144.488 83.6304C144.304 82.5999 144.042 81.8451 143.703 81.3662C143.376 80.8691 142.973 80.5681 142.493 80.4633C142.012 80.3431 141.463 80.338 140.848 80.4481C140.11 80.5801 139.499 80.848 139.015 81.2519C138.532 81.6558 138.155 82.1676 137.885 82.7873C137.628 83.3889 137.48 84.074 137.443 84.8425C137.406 85.6111 137.466 86.4337 137.623 87.3104ZM193.733 56.3728L199.739 89.965L191.664 91.4089L176.045 72.6307L179.782 93.5335L171.684 94.9816L165.678 61.3894L173.776 59.9413L189.395 78.7196L185.658 57.8167L193.733 56.3728ZM201.337 77.0605L201.25 76.576C200.923 74.7457 200.883 73.0147 201.131 71.3831C201.376 69.7361 201.905 68.2528 202.716 66.933C203.528 65.6133 204.623 64.5048 206.002 63.6074C207.379 62.6946 209.044 62.0635 210.997 61.7143C212.966 61.3622 214.754 61.3758 216.362 61.755C217.982 62.1161 219.401 62.775 220.62 63.7317C221.838 64.6884 222.848 65.8967 223.649 67.3567C224.447 68.8013 225.009 70.4388 225.337 72.2691L225.423 72.7536C225.748 74.5686 225.788 76.2995 225.542 77.9465C225.294 79.5781 224.766 81.0615 223.957 82.3966C223.146 83.7163 222.05 84.8249 220.671 85.7223C219.292 86.6197 217.625 87.243 215.672 87.5923C213.719 87.9416 211.932 87.9357 210.312 87.5746C208.692 87.2135 207.272 86.5546 206.054 85.5979C204.832 84.6259 203.823 83.4175 203.025 81.973C202.224 80.513 201.661 78.8755 201.337 77.0605ZM209.025 75.1858L209.112 75.6703C209.28 76.6085 209.506 77.4729 209.79 78.2633C210.074 79.0537 210.433 79.7277 210.866 80.2852C211.296 80.8273 211.818 81.218 212.432 81.4574C213.046 81.6968 213.769 81.7422 214.599 81.5937C215.415 81.4479 216.061 81.1577 216.539 80.7231C217.032 80.2857 217.387 79.7382 217.602 79.0806C217.815 78.4076 217.918 77.6511 217.911 76.8112C217.904 75.9712 217.816 75.0821 217.648 74.1439L217.562 73.6594C217.399 72.7519 217.178 71.9106 216.896 71.1355C216.612 70.3451 216.253 69.6711 215.82 69.1137C215.384 68.5408 214.858 68.127 214.241 67.8722C213.624 67.6175 212.9 67.5644 212.07 67.7129C211.255 67.8586 210.602 68.1579 210.111 68.6107C209.636 69.0607 209.294 69.6299 209.083 70.3183C208.87 70.9913 208.768 71.7477 208.775 72.5877C208.779 73.4123 208.863 74.2783 209.025 75.1858ZM227.915 72.3081L227.828 71.8235C227.501 69.9932 227.462 68.2622 227.709 66.6306C227.955 64.9836 228.483 63.5003 229.295 62.1805C230.106 60.8608 231.202 59.7523 232.581 58.8549C233.957 57.9421 235.622 57.3111 237.576 56.9618C239.544 56.6097 241.333 56.6233 242.94 57.0026C244.56 57.3636 245.98 58.0225 247.198 58.9792C248.417 59.9359 249.427 61.1442 250.227 62.6042C251.025 64.0488 251.588 65.6863 251.915 67.5166L252.002 68.0011C252.326 69.8161 252.366 71.547 252.121 73.194C251.873 74.8257 251.345 76.309 250.536 77.6441C249.724 78.9638 248.629 80.0724 247.249 80.9698C245.87 81.8672 244.204 82.4905 242.251 82.8398C240.297 83.1891 238.51 83.1832 236.89 82.8221C235.27 82.461 233.851 81.8021 232.632 80.8454C231.411 79.8734 230.401 78.6651 229.603 77.2205C228.802 75.7605 228.24 74.123 227.915 72.3081ZM235.604 70.4333L235.69 70.9178C235.858 71.856 236.084 72.7204 236.368 73.5108C236.652 74.3013 237.011 74.9752 237.444 75.5327C237.874 76.0748 238.396 76.4655 239.011 76.7049C239.625 76.9443 240.347 76.9897 241.178 76.8412C241.993 76.6954 242.64 76.4052 243.117 75.9706C243.611 75.5332 243.965 74.9857 244.181 74.3281C244.394 73.6551 244.497 72.8986 244.489 72.0587C244.482 71.2187 244.394 70.3296 244.227 69.3914L244.14 68.9069C243.978 67.9994 243.756 67.1581 243.475 66.3831C243.19 65.5926 242.832 64.9187 242.399 64.3612C241.963 63.7883 241.437 63.3745 240.82 63.1197C240.203 62.865 239.479 62.8119 238.648 62.9604C237.833 63.1061 237.18 63.4054 236.69 63.8582C236.215 64.3082 235.872 64.8774 235.662 65.5658C235.449 66.2388 235.346 66.9953 235.353 67.8352C235.358 68.6598 235.441 69.5258 235.604 70.4333ZM259.153 42.7466L265.493 78.2076L257.718 79.5978L251.377 44.1368L259.153 42.7466ZM276.995 50.3893L268.425 65.0407L263.764 71.7312L259.49 67.4003L263.118 60.3945L267.674 52.056L276.995 50.3893ZM273.13 76.8421L264.429 66.66L269.443 61.5491L282.036 75.2496L273.13 76.8421Z" fill="#FFFFF7"/>
<defs>
<filter id="filter0_d_133_4743" x="21.372" y="0" width="1530" height="507" filterUnits="userSpaceOnUse" color-interpolation-filters="sRGB">
<feFlood flood-opacity="0" result="BackgroundImageFix"/>
<feColorMatrix in="SourceAlpha" type="matrix" values="0 0 0 0 0 0 0 0 0 0 0 0 0 0 0 0 0 0 127 0" result="hardAlpha"/>
<feOffset dy="4"/>
<feGaussianBlur stdDeviation="2"/>
<feComposite in2="hardAlpha" operator="out"/>
<feColorMatrix type="matrix" values="0 0 0 0 0 0 0 0 0 0 0 0 0 0 0 0 0 0 0.25 0"/>
<feBlend mode="normal" in2="BackgroundImageFix" result="effect1_dropShadow_133_4743"/>
<feBlend mode="normal" in="SourceGraphic" in2="effect1_dropShadow_133_4743" result="shape"/>
</filter>
<filter id="filter1_d_133_4743" x="751.42" y="454.886" width="69.9038" height="52.114" filterUnits="userSpaceOnUse" color-interpolation-filters="sRGB">
<feFlood flood-opacity="0" result="BackgroundImageFix"/>
<feColorMatrix in="SourceAlpha" type="matrix" values="0 0 0 0 0 0 0 0 0 0 0 0 0 0 0 0 0 0 127 0" result="hardAlpha"/>
<feOffset dy="4"/>
<feGaussianBlur stdDeviation="2"/>
<feComposite in2="hardAlpha" operator="out"/>
<feColorMatrix type="matrix" values="0 0 0 0 0 0 0 0 0 0 0 0 0 0 0 0 0 0 0.25 0"/>
<feBlend mode="normal" in2="BackgroundImageFix" result="effect1_dropShadow_133_4743"/>
<feBlend mode="normal" in="SourceGraphic" in2="effect1_dropShadow_133_4743" result="shape"/>
</filter>
</defs>
</svg>
