<svg width="1087" height="204" viewBox="0 0 1087 204" fill="none" xmlns="http://www.w3.org/2000/svg">
<mask id="mask0_102_1121" style="mask-type:alpha" maskUnits="userSpaceOnUse" x="0" y="0" width="1087" height="204">
<rect width="1087" height="204" rx="90" fill="#E9E9E9"/>
</mask>
<g mask="url(#mask0_102_1121)">
<rect width="39.3113" height="1414.6" transform="matrix(0.429131 0.903242 -0.429131 0.903242 465.398 -1295.64)" fill="#FBC370"/>
<rect width="39.3113" height="1414.6" transform="matrix(0.429131 0.903242 -0.429131 0.903242 516.007 -1189.12)" fill="#F9D076"/>
<rect width="39.3113" height="1414.6" transform="matrix(0.429131 0.903242 -0.429131 0.903242 566.616 -1082.6)" fill="#FBC370"/>
<rect width="39.3113" height="1414.6" transform="matrix(0.429131 0.903242 -0.429131 0.903242 617.225 -976.073)" fill="#F9D076"/>
<rect width="39.3113" height="1414.6" transform="matrix(0.429131 0.903242 -0.429131 0.903242 667.834 -869.55)" fill="#FBC370"/>
<rect width="39.3113" height="1414.6" transform="matrix(0.429131 0.903242 -0.429131 0.903242 718.443 -763.027)" fill="#F9D076"/>
<rect width="39.3113" height="1414.6" transform="matrix(0.429131 0.903242 -0.429131 0.903242 769.052 -656.504)" fill="#FBC370"/>
<rect width="39.3113" height="1414.6" transform="matrix(0.429131 0.903242 -0.429131 0.903242 819.661 -549.981)" fill="#F9D076"/>
<rect width="39.3113" height="1414.6" transform="matrix(0.429131 0.903242 -0.429131 0.903242 870.27 -443.458)" fill="#FBC370"/>
<rect width="39.3113" height="1414.6" transform="matrix(0.429131 0.903242 -0.429131 0.903242 920.879 -336.935)" fill="#F9D076"/>
<rect width="39.3113" height="1414.6" transform="matrix(0.429131 0.903242 -0.429131 0.903242 971.488 -230.412)" fill="#FBC370"/>
<rect width="39.3113" height="1414.6" transform="matrix(0.429131 0.903242 -0.429131 0.903242 1022.1 -123.889)" fill="#F9D076"/>
<rect width="39.3113" height="1414.6" transform="matrix(0.429131 0.903242 -0.429131 0.903242 1072.71 -17.3667)" fill="#FBC370"/>
<rect width="39.3114" height="1414.6" transform="matrix(0.429131 0.903242 -0.429131 0.903242 1123.32 89.1562)" fill="#F9D076"/>
<rect width="39.3113" height="1414.6" transform="matrix(0.429131 0.903242 -0.429131 0.903242 482.526 -1260.68)" fill="#F9D076"/>
<rect width="39.3113" height="1414.6" transform="matrix(0.429131 0.903242 -0.429131 0.903242 533.135 -1154.15)" fill="#FBC370"/>
<rect width="39.3113" height="1414.6" transform="matrix(0.429131 0.903242 -0.429131 0.903242 583.744 -1047.63)" fill="#F9D076"/>
<rect width="39.3113" height="1414.6" transform="matrix(0.429131 0.903242 -0.429131 0.903242 634.353 -941.109)" fill="#FBC370"/>
<rect width="39.3113" height="1414.6" transform="matrix(0.429131 0.903242 -0.429131 0.903242 684.962 -834.586)" fill="#F9D076"/>
<rect width="39.3113" height="1414.6" transform="matrix(0.429131 0.903242 -0.429131 0.903242 735.571 -728.063)" fill="#FBC370"/>
<rect width="39.3113" height="1414.6" transform="matrix(0.429131 0.903242 -0.429131 0.903242 786.18 -621.54)" fill="#F9D076"/>
<rect width="39.3113" height="1414.6" transform="matrix(0.429131 0.903242 -0.429131 0.903242 836.789 -515.017)" fill="#FBC370"/>
<rect width="39.3113" height="1414.6" transform="matrix(0.429131 0.903242 -0.429131 0.903242 887.398 -408.494)" fill="#F9D076"/>
<rect width="39.3113" height="1414.6" transform="matrix(0.429131 0.903242 -0.429131 0.903242 938.007 -301.971)" fill="#FBC370"/>
<rect width="39.3114" height="1414.6" transform="matrix(0.429131 0.903242 -0.429131 0.903242 988.616 -195.448)" fill="#F9D076"/>
<rect width="39.3113" height="1414.6" transform="matrix(0.429131 0.903242 -0.429131 0.903242 1039.23 -88.9253)" fill="#FBC370"/>
<rect width="39.3113" height="1414.6" transform="matrix(0.429131 0.903242 -0.429131 0.903242 1089.83 17.5977)" fill="#F9D076"/>
<rect width="39.3113" height="1414.6" transform="matrix(0.429131 0.903242 -0.429131 0.903242 1140.44 124.121)" fill="#FBC370"/>
<rect width="39.3113" height="1414.6" transform="matrix(0.429131 0.903242 -0.429131 0.903242 499.395 -1225.17)" fill="#FBC370"/>
<rect width="39.3113" height="1414.6" transform="matrix(0.429131 0.903242 -0.429131 0.903242 550.005 -1118.65)" fill="#F9D076"/>
<rect width="39.3113" height="1414.6" transform="matrix(0.429131 0.903242 -0.429131 0.903242 600.614 -1012.12)" fill="#FBC370"/>
<rect width="39.3113" height="1414.6" transform="matrix(0.429131 0.903242 -0.429131 0.903242 651.223 -905.601)" fill="#F9D076"/>
<rect width="39.3113" height="1414.6" transform="matrix(0.429131 0.903242 -0.429131 0.903242 701.832 -799.078)" fill="#FBC370"/>
<rect width="39.3113" height="1414.6" transform="matrix(0.429131 0.903242 -0.429131 0.903242 752.441 -692.555)" fill="#F9D076"/>
<rect width="39.3113" height="1414.6" transform="matrix(0.429131 0.903242 -0.429131 0.903242 803.05 -586.032)" fill="#FBC370"/>
<rect width="39.3113" height="1414.6" transform="matrix(0.429131 0.903242 -0.429131 0.903242 853.659 -479.509)" fill="#F9D076"/>
<rect width="39.3113" height="1414.6" transform="matrix(0.429131 0.903242 -0.429131 0.903242 904.268 -372.986)" fill="#FBC370"/>
<rect width="39.3113" height="1414.6" transform="matrix(0.429131 0.903242 -0.429131 0.903242 954.877 -266.464)" fill="#F9D076"/>
<rect width="39.3113" height="1414.6" transform="matrix(0.429131 0.903242 -0.429131 0.903242 1005.49 -159.941)" fill="#FBC370"/>
<rect width="39.3113" height="1414.6" transform="matrix(0.429131 0.903242 -0.429131 0.903242 1056.09 -53.4177)" fill="#F9D076"/>
<rect width="39.3113" height="1414.6" transform="matrix(0.429131 0.903242 -0.429131 0.903242 1106.7 53.1052)" fill="#FBC370"/>
<rect width="39.3113" height="1414.6" transform="matrix(0.429131 0.903242 -0.429131 0.903242 1174.18 195.136)" fill="#FBC370"/>
<rect width="39.3113" height="1414.6" transform="matrix(0.429131 0.903242 -0.429131 0.903242 1157.31 159.628)" fill="#F9D076"/>
</g>
<path d="M115 116.375H130.625C130.125 122.333 128.458 127.646 125.625 132.312C122.792 136.938 118.812 140.583 113.688 143.25C108.562 145.917 102.333 147.25 95 147.25C89.375 147.25 84.3125 146.25 79.8125 144.25C75.3125 142.208 71.4583 139.333 68.25 135.625C65.0417 131.875 62.5833 127.354 60.875 122.062C59.2083 116.771 58.375 110.854 58.375 104.312V96.75C58.375 90.2083 59.2292 84.2917 60.9375 79C62.6875 73.7083 65.1875 69.1875 68.4375 65.4375C71.6875 61.6458 75.5833 58.75 80.125 56.75C84.7083 54.75 89.8542 53.75 95.5625 53.75C102.812 53.75 108.938 55.0833 113.938 57.75C118.938 60.4167 122.812 64.1042 125.562 68.8125C128.354 73.5208 130.062 78.9167 130.688 85H115.062C114.646 81.0833 113.729 77.7292 112.312 74.9375C110.938 72.1458 108.896 70.0208 106.188 68.5625C103.479 67.0625 99.9375 66.3125 95.5625 66.3125C91.9792 66.3125 88.8542 66.9792 86.1875 68.3125C83.5208 69.6458 81.2917 71.6042 79.5 74.1875C77.7083 76.7708 76.3542 79.9583 75.4375 83.75C74.5625 87.5 74.125 91.7917 74.125 96.625V104.312C74.125 108.896 74.5208 113.062 75.3125 116.812C76.1458 120.521 77.3958 123.708 79.0625 126.375C80.7708 129.042 82.9375 131.104 85.5625 132.562C88.1875 134.021 91.3333 134.75 95 134.75C99.4583 134.75 103.062 134.042 105.812 132.625C108.604 131.208 110.708 129.146 112.125 126.438C113.583 123.688 114.542 120.333 115 116.375ZM221.5 132.438V100.188C221.5 97.7708 221.062 95.6875 220.188 93.9375C219.312 92.1875 217.979 90.8333 216.188 89.875C214.438 88.9167 212.229 88.4375 209.562 88.4375C207.104 88.4375 204.979 88.8542 203.188 89.6875C201.396 90.5208 200 91.6458 199 93.0625C198 94.4792 197.5 96.0833 197.5 97.875H182.5C182.5 95.2083 183.146 92.625 184.438 90.125C185.729 87.625 187.604 85.3958 190.062 83.4375C192.521 81.4792 195.458 79.9375 198.875 78.8125C202.292 77.6875 206.125 77.125 210.375 77.125C215.458 77.125 219.958 77.9792 223.875 79.6875C227.833 81.3958 230.938 83.9792 233.188 87.4375C235.479 90.8542 236.625 95.1458 236.625 100.312V130.375C236.625 133.458 236.833 136.229 237.25 138.688C237.708 141.104 238.354 143.208 239.188 145V146H223.75C223.042 144.375 222.479 142.312 222.062 139.812C221.688 137.271 221.5 134.812 221.5 132.438ZM223.688 104.875L223.812 114.188H213C210.208 114.188 207.75 114.458 205.625 115C203.5 115.5 201.729 116.25 200.312 117.25C198.896 118.25 197.833 119.458 197.125 120.875C196.417 122.292 196.062 123.896 196.062 125.688C196.062 127.479 196.479 129.125 197.312 130.625C198.146 132.083 199.354 133.229 200.938 134.062C202.562 134.896 204.521 135.312 206.812 135.312C209.896 135.312 212.583 134.688 214.875 133.438C217.208 132.146 219.042 130.583 220.375 128.75C221.708 126.875 222.417 125.104 222.5 123.438L227.375 130.125C226.875 131.833 226.021 133.667 224.812 135.625C223.604 137.583 222.021 139.458 220.062 141.25C218.146 143 215.833 144.438 213.125 145.562C210.458 146.688 207.375 147.25 203.875 147.25C199.458 147.25 195.521 146.375 192.062 144.625C188.604 142.833 185.896 140.438 183.938 137.438C181.979 134.396 181 130.958 181 127.125C181 123.542 181.667 120.375 183 117.625C184.375 114.833 186.375 112.5 189 110.625C191.667 108.75 194.917 107.333 198.75 106.375C202.583 105.375 206.958 104.875 211.875 104.875H223.688ZM323.375 78.375V89.375H285.25V78.375H323.375ZM296.25 61.8125H311.312V127.312C311.312 129.396 311.604 131 312.188 132.125C312.812 133.208 313.667 133.938 314.75 134.312C315.833 134.688 317.104 134.875 318.562 134.875C319.604 134.875 320.604 134.812 321.562 134.688C322.521 134.562 323.292 134.438 323.875 134.312L323.938 145.812C322.688 146.188 321.229 146.521 319.562 146.812C317.938 147.104 316.062 147.25 313.938 147.25C310.479 147.25 307.417 146.646 304.75 145.438C302.083 144.188 300 142.167 298.5 139.375C297 136.583 296.25 132.875 296.25 128.25V61.8125ZM404.812 147.25C399.812 147.25 395.292 146.438 391.25 144.812C387.25 143.146 383.833 140.833 381 137.875C378.208 134.917 376.062 131.438 374.562 127.438C373.062 123.438 372.312 119.125 372.312 114.5V112C372.312 106.708 373.083 101.917 374.625 97.625C376.167 93.3333 378.312 89.6667 381.062 86.625C383.812 83.5417 387.062 81.1875 390.812 79.5625C394.562 77.9375 398.625 77.125 403 77.125C407.833 77.125 412.062 77.9375 415.688 79.5625C419.312 81.1875 422.312 83.4792 424.688 86.4375C427.104 89.3542 428.896 92.8333 430.062 96.875C431.271 100.917 431.875 105.375 431.875 110.25V116.688H379.625V105.875H417V104.688C416.917 101.979 416.375 99.4375 415.375 97.0625C414.417 94.6875 412.938 92.7708 410.938 91.3125C408.938 89.8542 406.271 89.125 402.938 89.125C400.438 89.125 398.208 89.6667 396.25 90.75C394.333 91.7917 392.729 93.3125 391.438 95.3125C390.146 97.3125 389.146 99.7292 388.438 102.562C387.771 105.354 387.438 108.5 387.438 112V114.5C387.438 117.458 387.833 120.208 388.625 122.75C389.458 125.25 390.667 127.438 392.25 129.312C393.833 131.188 395.75 132.667 398 133.75C400.25 134.792 402.812 135.312 405.688 135.312C409.312 135.312 412.542 134.583 415.375 133.125C418.208 131.667 420.667 129.604 422.75 126.938L430.688 134.625C429.229 136.75 427.333 138.792 425 140.75C422.667 142.667 419.812 144.229 416.438 145.438C413.104 146.646 409.229 147.25 404.812 147.25ZM394.312 68.8125L406.5 50H423.5L406.5 68.8125H394.312ZM526.938 78.375H540.625V144.125C540.625 150.208 539.333 155.375 536.75 159.625C534.167 163.875 530.562 167.104 525.938 169.312C521.312 171.562 515.958 172.688 509.875 172.688C507.292 172.688 504.417 172.312 501.25 171.562C498.125 170.812 495.083 169.604 492.125 167.938C489.208 166.312 486.771 164.167 484.812 161.5L491.875 152.625C494.292 155.5 496.958 157.604 499.875 158.938C502.792 160.271 505.854 160.938 509.062 160.938C512.521 160.938 515.458 160.292 517.875 159C520.333 157.75 522.229 155.896 523.562 153.438C524.896 150.979 525.562 147.979 525.562 144.438V93.6875L526.938 78.375ZM481 112.938V111.625C481 106.5 481.625 101.833 482.875 97.625C484.125 93.375 485.917 89.7292 488.25 86.6875C490.583 83.6042 493.417 81.25 496.75 79.625C500.083 77.9583 503.854 77.125 508.062 77.125C512.438 77.125 516.167 77.9167 519.25 79.5C522.375 81.0833 524.979 83.3542 527.062 86.3125C529.146 89.2292 530.771 92.7292 531.938 96.8125C533.146 100.854 534.042 105.354 534.625 110.312V114.5C534.083 119.333 533.167 123.75 531.875 127.75C530.583 131.75 528.875 135.208 526.75 138.125C524.625 141.042 522 143.292 518.875 144.875C515.792 146.458 512.146 147.25 507.938 147.25C503.812 147.25 500.083 146.396 496.75 144.688C493.458 142.979 490.625 140.583 488.25 137.5C485.917 134.417 484.125 130.792 482.875 126.625C481.625 122.417 481 117.854 481 112.938ZM496.062 111.625V112.938C496.062 116.021 496.354 118.896 496.938 121.562C497.562 124.229 498.5 126.583 499.75 128.625C501.042 130.625 502.667 132.208 504.625 133.375C506.625 134.5 508.979 135.062 511.688 135.062C515.229 135.062 518.125 134.312 520.375 132.812C522.667 131.312 524.417 129.292 525.625 126.75C526.875 124.167 527.75 121.292 528.25 118.125V106.812C528 104.354 527.479 102.062 526.688 99.9375C525.938 97.8125 524.917 95.9583 523.625 94.375C522.333 92.75 520.708 91.5 518.75 90.625C516.792 89.7083 514.479 89.25 511.812 89.25C509.104 89.25 506.75 89.8333 504.75 91C502.75 92.1667 501.104 93.7708 499.812 95.8125C498.562 97.8542 497.625 100.229 497 102.938C496.375 105.646 496.062 108.542 496.062 111.625ZM593.375 112.938V111.5C593.375 106.625 594.083 102.104 595.5 97.9375C596.917 93.7292 598.958 90.0833 601.625 87C604.333 83.875 607.625 81.4583 611.5 79.75C615.417 78 619.833 77.125 624.75 77.125C629.708 77.125 634.125 78 638 79.75C641.917 81.4583 645.229 83.875 647.938 87C650.646 90.0833 652.708 93.7292 654.125 97.9375C655.542 102.104 656.25 106.625 656.25 111.5V112.938C656.25 117.812 655.542 122.333 654.125 126.5C652.708 130.667 650.646 134.312 647.938 137.438C645.229 140.521 641.938 142.938 638.062 144.688C634.188 146.396 629.792 147.25 624.875 147.25C619.917 147.25 615.479 146.396 611.562 144.688C607.688 142.938 604.396 140.521 601.688 137.438C598.979 134.312 596.917 130.667 595.5 126.5C594.083 122.333 593.375 117.812 593.375 112.938ZM608.438 111.5V112.938C608.438 115.979 608.75 118.854 609.375 121.562C610 124.271 610.979 126.646 612.312 128.688C613.646 130.729 615.354 132.333 617.438 133.5C619.521 134.667 622 135.25 624.875 135.25C627.667 135.25 630.083 134.667 632.125 133.5C634.208 132.333 635.917 130.729 637.25 128.688C638.583 126.646 639.562 124.271 640.188 121.562C640.854 118.854 641.188 115.979 641.188 112.938V111.5C641.188 108.5 640.854 105.667 640.188 103C639.562 100.292 638.562 97.8958 637.188 95.8125C635.854 93.7292 634.146 92.1042 632.062 90.9375C630.021 89.7292 627.583 89.125 624.75 89.125C621.917 89.125 619.458 89.7292 617.375 90.9375C615.333 92.1042 613.646 93.7292 612.312 95.8125C610.979 97.8958 610 100.292 609.375 103C608.75 105.667 608.438 108.5 608.438 111.5ZM724 91.25V146H708.938V78.375H723.312L724 91.25ZM744.688 77.9375L744.562 91.9375C743.646 91.7708 742.646 91.6458 741.562 91.5625C740.521 91.4792 739.479 91.4375 738.438 91.4375C735.854 91.4375 733.583 91.8125 731.625 92.5625C729.667 93.2708 728.021 94.3125 726.688 95.6875C725.396 97.0208 724.396 98.6458 723.688 100.562C722.979 102.479 722.562 104.625 722.438 107L719 107.25C719 103 719.417 99.0625 720.25 95.4375C721.083 91.8125 722.333 88.625 724 85.875C725.708 83.125 727.833 80.9792 730.375 79.4375C732.958 77.8958 735.938 77.125 739.312 77.125C740.229 77.125 741.208 77.2083 742.25 77.375C743.333 77.5417 744.146 77.7292 744.688 77.9375ZM810.25 78.375V146H795.125V78.375H810.25ZM794.125 60.625C794.125 58.3333 794.875 56.4375 796.375 54.9375C797.917 53.3958 800.042 52.625 802.75 52.625C805.417 52.625 807.521 53.3958 809.062 54.9375C810.604 56.4375 811.375 58.3333 811.375 60.625C811.375 62.875 810.604 64.75 809.062 66.25C807.521 67.75 805.417 68.5 802.75 68.5C800.042 68.5 797.917 67.75 796.375 66.25C794.875 64.75 794.125 62.875 794.125 60.625ZM896.562 147.25C891.562 147.25 887.042 146.438 883 144.812C879 143.146 875.583 140.833 872.75 137.875C869.958 134.917 867.812 131.438 866.312 127.438C864.812 123.438 864.062 119.125 864.062 114.5V112C864.062 106.708 864.833 101.917 866.375 97.625C867.917 93.3333 870.062 89.6667 872.812 86.625C875.562 83.5417 878.812 81.1875 882.562 79.5625C886.312 77.9375 890.375 77.125 894.75 77.125C899.583 77.125 903.812 77.9375 907.438 79.5625C911.062 81.1875 914.062 83.4792 916.438 86.4375C918.854 89.3542 920.646 92.8333 921.812 96.875C923.021 100.917 923.625 105.375 923.625 110.25V116.688H871.375V105.875H908.75V104.688C908.667 101.979 908.125 99.4375 907.125 97.0625C906.167 94.6875 904.688 92.7708 902.688 91.3125C900.688 89.8542 898.021 89.125 894.688 89.125C892.188 89.125 889.958 89.6667 888 90.75C886.083 91.7917 884.479 93.3125 883.188 95.3125C881.896 97.3125 880.896 99.7292 880.188 102.562C879.521 105.354 879.188 108.5 879.188 112V114.5C879.188 117.458 879.583 120.208 880.375 122.75C881.208 125.25 882.417 127.438 884 129.312C885.583 131.188 887.5 132.667 889.75 133.75C892 134.792 894.562 135.312 897.438 135.312C901.062 135.312 904.292 134.583 907.125 133.125C909.958 131.667 912.417 129.604 914.5 126.938L922.438 134.625C920.979 136.75 919.083 138.792 916.75 140.75C914.417 142.667 911.562 144.229 908.188 145.438C904.854 146.646 900.979 147.25 896.562 147.25ZM1013.31 127.688C1013.31 126.188 1012.94 124.833 1012.19 123.625C1011.44 122.375 1010 121.25 1007.88 120.25C1005.79 119.25 1002.71 118.333 998.625 117.5C995.042 116.708 991.75 115.771 988.75 114.688C985.792 113.562 983.25 112.208 981.125 110.625C979 109.042 977.354 107.167 976.188 105C975.021 102.833 974.438 100.333 974.438 97.5C974.438 94.75 975.042 92.1458 976.25 89.6875C977.458 87.2292 979.188 85.0625 981.438 83.1875C983.688 81.3125 986.417 79.8333 989.625 78.75C992.875 77.6667 996.5 77.125 1000.5 77.125C1006.17 77.125 1011.02 78.0833 1015.06 80C1019.15 81.875 1022.27 84.4375 1024.44 87.6875C1026.6 90.8958 1027.69 94.5208 1027.69 98.5625H1012.62C1012.62 96.7708 1012.17 95.1042 1011.25 93.5625C1010.38 91.9792 1009.04 90.7083 1007.25 89.75C1005.46 88.75 1003.21 88.25 1000.5 88.25C997.917 88.25 995.771 88.6667 994.062 89.5C992.396 90.2917 991.146 91.3333 990.312 92.625C989.521 93.9167 989.125 95.3333 989.125 96.875C989.125 98 989.333 99.0208 989.75 99.9375C990.208 100.812 990.958 101.625 992 102.375C993.042 103.083 994.458 103.75 996.25 104.375C998.083 105 1000.38 105.604 1003.12 106.188C1008.29 107.271 1012.73 108.667 1016.44 110.375C1020.19 112.042 1023.06 114.208 1025.06 116.875C1027.06 119.5 1028.06 122.833 1028.06 126.875C1028.06 129.875 1027.42 132.625 1026.12 135.125C1024.88 137.583 1023.04 139.729 1020.62 141.562C1018.21 143.354 1015.31 144.75 1011.94 145.75C1008.6 146.75 1004.85 147.25 1000.69 147.25C994.562 147.25 989.375 146.167 985.125 144C980.875 141.792 977.646 138.979 975.438 135.562C973.271 132.104 972.188 128.521 972.188 124.812H986.75C986.917 127.604 987.688 129.833 989.062 131.5C990.479 133.125 992.229 134.312 994.312 135.062C996.438 135.771 998.625 136.125 1000.88 136.125C1003.58 136.125 1005.85 135.771 1007.69 135.062C1009.52 134.312 1010.92 133.312 1011.88 132.062C1012.83 130.771 1013.31 129.312 1013.31 127.688Z" fill="#725C4E"/>
</svg>
