<svg width="1087" height="204" viewBox="0 0 1087 204" fill="none" xmlns="http://www.w3.org/2000/svg">
<mask id="mask0_148_4505" style="mask-type:alpha" maskUnits="userSpaceOnUse" x="0" y="0" width="1087" height="204">
<rect width="1087" height="204" rx="90" fill="#4BCC2A"/>
</mask>
<g mask="url(#mask0_148_4505)">
<rect width="39.3113" height="1414.6" transform="matrix(0.429131 0.903242 -0.429131 0.903242 465.398 -1295.64)" fill="#D4A4E4"/>
<rect width="39.3113" height="1414.6" transform="matrix(0.429131 0.903242 -0.429131 0.903242 516.007 -1189.12)" fill="#E4AFF6"/>
<rect width="39.3113" height="1414.6" transform="matrix(0.429131 0.903242 -0.429131 0.903242 566.616 -1082.6)" fill="#D4A4E4"/>
<rect width="39.3113" height="1414.6" transform="matrix(0.429131 0.903242 -0.429131 0.903242 617.225 -976.073)" fill="#E4AFF6"/>
<rect width="39.3113" height="1414.6" transform="matrix(0.429131 0.903242 -0.429131 0.903242 667.834 -869.55)" fill="#D4A4E4"/>
<rect width="39.3113" height="1414.6" transform="matrix(0.429131 0.903242 -0.429131 0.903242 718.443 -763.027)" fill="#E4AFF6"/>
<rect width="39.3113" height="1414.6" transform="matrix(0.429131 0.903242 -0.429131 0.903242 769.052 -656.504)" fill="#D4A4E4"/>
<rect width="39.3113" height="1414.6" transform="matrix(0.429131 0.903242 -0.429131 0.903242 819.661 -549.981)" fill="#E4AFF6"/>
<rect width="39.3113" height="1414.6" transform="matrix(0.429131 0.903242 -0.429131 0.903242 870.27 -443.458)" fill="#D4A4E4"/>
<rect width="39.3113" height="1414.6" transform="matrix(0.429131 0.903242 -0.429131 0.903242 920.879 -336.935)" fill="#E4AFF6"/>
<rect width="39.3113" height="1414.6" transform="matrix(0.429131 0.903242 -0.429131 0.903242 971.488 -230.412)" fill="#D4A4E4"/>
<rect width="39.3113" height="1414.6" transform="matrix(0.429131 0.903242 -0.429131 0.903242 1022.1 -123.89)" fill="#E4AFF6"/>
<rect width="39.3113" height="1414.6" transform="matrix(0.429131 0.903242 -0.429131 0.903242 1072.71 -17.3666)" fill="#D4A4E4"/>
<rect width="39.3114" height="1414.6" transform="matrix(0.429131 0.903242 -0.429131 0.903242 1123.32 89.1562)" fill="#E4AFF6"/>
<rect width="39.3113" height="1414.6" transform="matrix(0.429131 0.903242 -0.429131 0.903242 482.526 -1260.68)" fill="#E4AFF6"/>
<rect width="39.3113" height="1414.6" transform="matrix(0.429131 0.903242 -0.429131 0.903242 533.135 -1154.15)" fill="#D4A4E4"/>
<rect width="39.3113" height="1414.6" transform="matrix(0.429131 0.903242 -0.429131 0.903242 583.744 -1047.63)" fill="#E4AFF6"/>
<rect width="39.3113" height="1414.6" transform="matrix(0.429131 0.903242 -0.429131 0.903242 634.353 -941.109)" fill="#D4A4E4"/>
<rect width="39.3113" height="1414.6" transform="matrix(0.429131 0.903242 -0.429131 0.903242 684.962 -834.586)" fill="#E4AFF6"/>
<rect width="39.3113" height="1414.6" transform="matrix(0.429131 0.903242 -0.429131 0.903242 735.571 -728.063)" fill="#D4A4E4"/>
<rect width="39.3113" height="1414.6" transform="matrix(0.429131 0.903242 -0.429131 0.903242 786.18 -621.54)" fill="#E4AFF6"/>
<rect width="39.3113" height="1414.6" transform="matrix(0.429131 0.903242 -0.429131 0.903242 836.789 -515.017)" fill="#D4A4E4"/>
<rect width="39.3113" height="1414.6" transform="matrix(0.429131 0.903242 -0.429131 0.903242 887.398 -408.494)" fill="#E4AFF6"/>
<rect width="39.3113" height="1414.6" transform="matrix(0.429131 0.903242 -0.429131 0.903242 938.007 -301.971)" fill="#D4A4E4"/>
<rect width="39.3114" height="1414.6" transform="matrix(0.429131 0.903242 -0.429131 0.903242 988.616 -195.448)" fill="#E4AFF6"/>
<rect width="39.3113" height="1414.6" transform="matrix(0.429131 0.903242 -0.429131 0.903242 1039.23 -88.9253)" fill="#D4A4E4"/>
<rect width="39.3113" height="1414.6" transform="matrix(0.429131 0.903242 -0.429131 0.903242 1089.83 17.5975)" fill="#E4AFF6"/>
<rect width="39.3113" height="1414.6" transform="matrix(0.429131 0.903242 -0.429131 0.903242 1140.44 124.12)" fill="#D4A4E4"/>
<rect width="39.3113" height="1414.6" transform="matrix(0.429131 0.903242 -0.429131 0.903242 499.395 -1225.17)" fill="#D4A4E4"/>
<rect width="39.3113" height="1414.6" transform="matrix(0.429131 0.903242 -0.429131 0.903242 550.005 -1118.65)" fill="#E4AFF6"/>
<rect width="39.3113" height="1414.6" transform="matrix(0.429131 0.903242 -0.429131 0.903242 600.614 -1012.12)" fill="#D4A4E4"/>
<rect width="39.3113" height="1414.6" transform="matrix(0.429131 0.903242 -0.429131 0.903242 651.223 -905.601)" fill="#E4AFF6"/>
<rect width="39.3113" height="1414.6" transform="matrix(0.429131 0.903242 -0.429131 0.903242 701.832 -799.078)" fill="#D4A4E4"/>
<rect width="39.3113" height="1414.6" transform="matrix(0.429131 0.903242 -0.429131 0.903242 752.441 -692.555)" fill="#E4AFF6"/>
<rect width="39.3113" height="1414.6" transform="matrix(0.429131 0.903242 -0.429131 0.903242 803.05 -586.032)" fill="#D4A4E4"/>
<rect width="39.3113" height="1414.6" transform="matrix(0.429131 0.903242 -0.429131 0.903242 853.659 -479.509)" fill="#E4AFF6"/>
<rect width="39.3113" height="1414.6" transform="matrix(0.429131 0.903242 -0.429131 0.903242 904.268 -372.986)" fill="#D4A4E4"/>
<rect width="39.3113" height="1414.6" transform="matrix(0.429131 0.903242 -0.429131 0.903242 954.877 -266.464)" fill="#E4AFF6"/>
<rect width="39.3113" height="1414.6" transform="matrix(0.429131 0.903242 -0.429131 0.903242 1005.49 -159.941)" fill="#D4A4E4"/>
<rect width="39.3113" height="1414.6" transform="matrix(0.429131 0.903242 -0.429131 0.903242 1056.09 -53.4177)" fill="#E4AFF6"/>
<rect width="39.3113" height="1414.6" transform="matrix(0.429131 0.903242 -0.429131 0.903242 1106.7 53.1052)" fill="#D4A4E4"/>
<rect width="39.3113" height="1414.6" transform="matrix(0.429131 0.903242 -0.429131 0.903242 1174.18 195.136)" fill="#D4A4E4"/>
<rect width="39.3113" height="1414.6" transform="matrix(0.429131 0.903242 -0.429131 0.903242 1157.31 159.628)" fill="#E4AFF6"/>
<path d="M193.625 55H207.625L233.938 125.188L260.188 55H274.188L239.438 146H228.312L193.625 55ZM187.25 55H200.562L202.875 115.75V146H187.25V55ZM267.25 55H280.625V146H264.938V115.75L267.25 55ZM367.562 147.25C362.562 147.25 358.042 146.438 354 144.812C350 143.146 346.583 140.833 343.75 137.875C340.958 134.917 338.812 131.438 337.312 127.438C335.812 123.438 335.062 119.125 335.062 114.5V112C335.062 106.708 335.833 101.917 337.375 97.625C338.917 93.3333 341.062 89.6667 343.812 86.625C346.562 83.5417 349.812 81.1875 353.562 79.5625C357.312 77.9375 361.375 77.125 365.75 77.125C370.583 77.125 374.812 77.9375 378.438 79.5625C382.062 81.1875 385.062 83.4792 387.438 86.4375C389.854 89.3542 391.646 92.8333 392.812 96.875C394.021 100.917 394.625 105.375 394.625 110.25V116.688H342.375V105.875H379.75V104.688C379.667 101.979 379.125 99.4375 378.125 97.0625C377.167 94.6875 375.688 92.7708 373.688 91.3125C371.688 89.8542 369.021 89.125 365.688 89.125C363.188 89.125 360.958 89.6667 359 90.75C357.083 91.7917 355.479 93.3125 354.188 95.3125C352.896 97.3125 351.896 99.7292 351.188 102.562C350.521 105.354 350.188 108.5 350.188 112V114.5C350.188 117.458 350.583 120.208 351.375 122.75C352.208 125.25 353.417 127.438 355 129.312C356.583 131.188 358.5 132.667 360.75 133.75C363 134.792 365.562 135.312 368.438 135.312C372.062 135.312 375.292 134.583 378.125 133.125C380.958 131.667 383.417 129.604 385.5 126.938L393.438 134.625C391.979 136.75 390.083 138.792 387.75 140.75C385.417 142.667 382.562 144.229 379.188 145.438C375.854 146.646 371.979 147.25 367.562 147.25ZM487.062 130.062V78.375H502.188V146H487.938L487.062 130.062ZM489.188 116L494.25 115.875C494.25 120.417 493.75 124.604 492.75 128.438C491.75 132.229 490.208 135.542 488.125 138.375C486.042 141.167 483.375 143.354 480.125 144.938C476.875 146.479 472.979 147.25 468.438 147.25C465.146 147.25 462.125 146.771 459.375 145.812C456.625 144.854 454.25 143.375 452.25 141.375C450.292 139.375 448.771 136.771 447.688 133.562C446.604 130.354 446.062 126.521 446.062 122.062V78.375H461.125V122.188C461.125 124.646 461.417 126.708 462 128.375C462.583 130 463.375 131.312 464.375 132.312C465.375 133.312 466.542 134.021 467.875 134.438C469.208 134.854 470.625 135.062 472.125 135.062C476.417 135.062 479.792 134.229 482.25 132.562C484.75 130.854 486.521 128.562 487.562 125.688C488.646 122.812 489.188 119.583 489.188 116ZM557.688 50H572.75V131.562L571.312 146H557.688V50ZM616.875 111.562V112.875C616.875 117.875 616.312 122.479 615.188 126.688C614.104 130.854 612.438 134.479 610.188 137.562C607.979 140.646 605.229 143.042 601.938 144.75C598.688 146.417 594.917 147.25 590.625 147.25C586.417 147.25 582.75 146.458 579.625 144.875C576.5 143.292 573.875 141.042 571.75 138.125C569.667 135.208 567.979 131.729 566.688 127.688C565.396 123.646 564.479 119.188 563.938 114.312V110.125C564.479 105.208 565.396 100.75 566.688 96.75C567.979 92.7083 569.667 89.2292 571.75 86.3125C573.875 83.3542 576.479 81.0833 579.562 79.5C582.688 77.9167 586.333 77.125 590.5 77.125C594.833 77.125 598.646 77.9583 601.938 79.625C605.271 81.2917 608.042 83.6667 610.25 86.75C612.458 89.7917 614.104 93.4167 615.188 97.625C616.312 101.833 616.875 106.479 616.875 111.562ZM601.812 112.875V111.562C601.812 108.521 601.562 105.667 601.062 103C600.562 100.292 599.729 97.9167 598.562 95.875C597.438 93.8333 595.896 92.2292 593.938 91.0625C592.021 89.8542 589.625 89.25 586.75 89.25C584.083 89.25 581.792 89.7083 579.875 90.625C577.958 91.5417 576.354 92.7917 575.062 94.375C573.771 95.9583 572.75 97.7917 572 99.875C571.292 101.958 570.812 104.208 570.562 106.625V117.938C570.938 121.062 571.729 123.938 572.938 126.562C574.188 129.146 575.938 131.229 578.188 132.812C580.438 134.354 583.333 135.125 586.875 135.125C589.667 135.125 592.021 134.562 593.938 133.438C595.854 132.312 597.375 130.75 598.5 128.75C599.667 126.708 600.5 124.333 601 121.625C601.542 118.917 601.812 116 601.812 112.875ZM685.75 50V146H670.625V50H685.75ZM772.062 147.25C767.062 147.25 762.542 146.438 758.5 144.812C754.5 143.146 751.083 140.833 748.25 137.875C745.458 134.917 743.312 131.438 741.812 127.438C740.312 123.438 739.562 119.125 739.562 114.5V112C739.562 106.708 740.333 101.917 741.875 97.625C743.417 93.3333 745.562 89.6667 748.312 86.625C751.062 83.5417 754.312 81.1875 758.062 79.5625C761.812 77.9375 765.875 77.125 770.25 77.125C775.083 77.125 779.312 77.9375 782.938 79.5625C786.562 81.1875 789.562 83.4792 791.938 86.4375C794.354 89.3542 796.146 92.8333 797.312 96.875C798.521 100.917 799.125 105.375 799.125 110.25V116.688H746.875V105.875H784.25V104.688C784.167 101.979 783.625 99.4375 782.625 97.0625C781.667 94.6875 780.188 92.7708 778.188 91.3125C776.188 89.8542 773.521 89.125 770.188 89.125C767.688 89.125 765.458 89.6667 763.5 90.75C761.583 91.7917 759.979 93.3125 758.688 95.3125C757.396 97.3125 756.396 99.7292 755.688 102.562C755.021 105.354 754.688 108.5 754.688 112V114.5C754.688 117.458 755.083 120.208 755.875 122.75C756.708 125.25 757.917 127.438 759.5 129.312C761.083 131.188 763 132.667 765.25 133.75C767.5 134.792 770.062 135.312 772.938 135.312C776.562 135.312 779.792 134.583 782.625 133.125C785.458 131.667 787.917 129.604 790 126.938L797.938 134.625C796.479 136.75 794.583 138.792 792.25 140.75C789.917 142.667 787.062 144.229 783.688 145.438C780.354 146.646 776.479 147.25 772.062 147.25ZM888.812 127.688C888.812 126.188 888.438 124.833 887.688 123.625C886.938 122.375 885.5 121.25 883.375 120.25C881.292 119.25 878.208 118.333 874.125 117.5C870.542 116.708 867.25 115.771 864.25 114.688C861.292 113.562 858.75 112.208 856.625 110.625C854.5 109.042 852.854 107.167 851.688 105C850.521 102.833 849.938 100.333 849.938 97.5C849.938 94.75 850.542 92.1458 851.75 89.6875C852.958 87.2292 854.688 85.0625 856.938 83.1875C859.188 81.3125 861.917 79.8333 865.125 78.75C868.375 77.6667 872 77.125 876 77.125C881.667 77.125 886.521 78.0833 890.562 80C894.646 81.875 897.771 84.4375 899.938 87.6875C902.104 90.8958 903.188 94.5208 903.188 98.5625H888.125C888.125 96.7708 887.667 95.1042 886.75 93.5625C885.875 91.9792 884.542 90.7083 882.75 89.75C880.958 88.75 878.708 88.25 876 88.25C873.417 88.25 871.271 88.6667 869.562 89.5C867.896 90.2917 866.646 91.3333 865.812 92.625C865.021 93.9167 864.625 95.3333 864.625 96.875C864.625 98 864.833 99.0208 865.25 99.9375C865.708 100.812 866.458 101.625 867.5 102.375C868.542 103.083 869.958 103.75 871.75 104.375C873.583 105 875.875 105.604 878.625 106.188C883.792 107.271 888.229 108.667 891.938 110.375C895.688 112.042 898.562 114.208 900.562 116.875C902.562 119.5 903.562 122.833 903.562 126.875C903.562 129.875 902.917 132.625 901.625 135.125C900.375 137.583 898.542 139.729 896.125 141.562C893.708 143.354 890.812 144.75 887.438 145.75C884.104 146.75 880.354 147.25 876.188 147.25C870.062 147.25 864.875 146.167 860.625 144C856.375 141.792 853.146 138.979 850.938 135.562C848.771 132.104 847.688 128.521 847.688 124.812H862.25C862.417 127.604 863.188 129.833 864.562 131.5C865.979 133.125 867.729 134.312 869.812 135.062C871.938 135.771 874.125 136.125 876.375 136.125C879.083 136.125 881.354 135.771 883.188 135.062C885.021 134.312 886.417 133.312 887.375 132.062C888.333 130.771 888.812 129.312 888.812 127.688Z" fill="#725C4E"/>
</g>
</svg>
