<svg width="1087" height="204" viewBox="0 0 1087 204" fill="none" xmlns="http://www.w3.org/2000/svg">
<mask id="mask0_147_4448" style="mask-type:alpha" maskUnits="userSpaceOnUse" x="0" y="0" width="1087" height="204">
<rect width="1087" height="204" rx="90" fill="#4BCC2A"/>
</mask>
<g mask="url(#mask0_147_4448)">
<rect width="39.3113" height="1414.6" transform="matrix(0.429131 0.903242 -0.429131 0.903242 465.398 -1295.64)" fill="#A7DF99"/>
<rect width="39.3113" height="1414.6" transform="matrix(0.429131 0.903242 -0.429131 0.903242 516.007 -1189.12)" fill="#BCEAAF"/>
<rect width="39.3113" height="1414.6" transform="matrix(0.429131 0.903242 -0.429131 0.903242 566.616 -1082.6)" fill="#A7DF99"/>
<rect width="39.3113" height="1414.6" transform="matrix(0.429131 0.903242 -0.429131 0.903242 617.225 -976.073)" fill="#BCEAAF"/>
<rect width="39.3113" height="1414.6" transform="matrix(0.429131 0.903242 -0.429131 0.903242 667.834 -869.55)" fill="#A7DF99"/>
<rect width="39.3113" height="1414.6" transform="matrix(0.429131 0.903242 -0.429131 0.903242 718.443 -763.027)" fill="#BCEAAF"/>
<rect width="39.3113" height="1414.6" transform="matrix(0.429131 0.903242 -0.429131 0.903242 769.052 -656.504)" fill="#A7DF99"/>
<rect width="39.3113" height="1414.6" transform="matrix(0.429131 0.903242 -0.429131 0.903242 819.661 -549.981)" fill="#BCEAAF"/>
<rect width="39.3113" height="1414.6" transform="matrix(0.429131 0.903242 -0.429131 0.903242 870.27 -443.458)" fill="#A7DF99"/>
<rect width="39.3113" height="1414.6" transform="matrix(0.429131 0.903242 -0.429131 0.903242 920.879 -336.935)" fill="#BCEAAF"/>
<rect width="39.3113" height="1414.6" transform="matrix(0.429131 0.903242 -0.429131 0.903242 971.488 -230.412)" fill="#A7DF99"/>
<rect width="39.3113" height="1414.6" transform="matrix(0.429131 0.903242 -0.429131 0.903242 1022.1 -123.89)" fill="#BCEAAF"/>
<rect width="39.3113" height="1414.6" transform="matrix(0.429131 0.903242 -0.429131 0.903242 1072.71 -17.3666)" fill="#A7DF99"/>
<rect width="39.3114" height="1414.6" transform="matrix(0.429131 0.903242 -0.429131 0.903242 1123.32 89.1562)" fill="#BCEAAF"/>
<rect width="39.3113" height="1414.6" transform="matrix(0.429131 0.903242 -0.429131 0.903242 482.526 -1260.68)" fill="#BCEAAF"/>
<rect width="39.3113" height="1414.6" transform="matrix(0.429131 0.903242 -0.429131 0.903242 533.135 -1154.15)" fill="#A7DF99"/>
<rect width="39.3113" height="1414.6" transform="matrix(0.429131 0.903242 -0.429131 0.903242 583.744 -1047.63)" fill="#BCEAAF"/>
<rect width="39.3113" height="1414.6" transform="matrix(0.429131 0.903242 -0.429131 0.903242 634.353 -941.109)" fill="#A7DF99"/>
<rect width="39.3113" height="1414.6" transform="matrix(0.429131 0.903242 -0.429131 0.903242 684.962 -834.586)" fill="#BCEAAF"/>
<rect width="39.3113" height="1414.6" transform="matrix(0.429131 0.903242 -0.429131 0.903242 735.571 -728.063)" fill="#A7DF99"/>
<rect width="39.3113" height="1414.6" transform="matrix(0.429131 0.903242 -0.429131 0.903242 786.18 -621.54)" fill="#BCEAAF"/>
<rect width="39.3113" height="1414.6" transform="matrix(0.429131 0.903242 -0.429131 0.903242 836.789 -515.017)" fill="#A7DF99"/>
<rect width="39.3113" height="1414.6" transform="matrix(0.429131 0.903242 -0.429131 0.903242 887.398 -408.494)" fill="#BCEAAF"/>
<rect width="39.3113" height="1414.6" transform="matrix(0.429131 0.903242 -0.429131 0.903242 938.007 -301.971)" fill="#A7DF99"/>
<rect width="39.3114" height="1414.6" transform="matrix(0.429131 0.903242 -0.429131 0.903242 988.616 -195.448)" fill="#BCEAAF"/>
<rect width="39.3113" height="1414.6" transform="matrix(0.429131 0.903242 -0.429131 0.903242 1039.23 -88.9253)" fill="#A7DF99"/>
<rect width="39.3113" height="1414.6" transform="matrix(0.429131 0.903242 -0.429131 0.903242 1089.83 17.5977)" fill="#BCEAAF"/>
<rect width="39.3113" height="1414.6" transform="matrix(0.429131 0.903242 -0.429131 0.903242 1140.44 124.121)" fill="#A7DF99"/>
<rect width="39.3113" height="1414.6" transform="matrix(0.429131 0.903242 -0.429131 0.903242 499.395 -1225.17)" fill="#A7DF99"/>
<rect width="39.3113" height="1414.6" transform="matrix(0.429131 0.903242 -0.429131 0.903242 550.005 -1118.65)" fill="#BCEAAF"/>
<rect width="39.3113" height="1414.6" transform="matrix(0.429131 0.903242 -0.429131 0.903242 600.614 -1012.12)" fill="#A7DF99"/>
<rect width="39.3113" height="1414.6" transform="matrix(0.429131 0.903242 -0.429131 0.903242 651.223 -905.601)" fill="#BCEAAF"/>
<rect width="39.3113" height="1414.6" transform="matrix(0.429131 0.903242 -0.429131 0.903242 701.832 -799.078)" fill="#A7DF99"/>
<rect width="39.3113" height="1414.6" transform="matrix(0.429131 0.903242 -0.429131 0.903242 752.441 -692.555)" fill="#BCEAAF"/>
<rect width="39.3113" height="1414.6" transform="matrix(0.429131 0.903242 -0.429131 0.903242 803.05 -586.032)" fill="#A7DF99"/>
<rect width="39.3113" height="1414.6" transform="matrix(0.429131 0.903242 -0.429131 0.903242 853.659 -479.509)" fill="#BCEAAF"/>
<rect width="39.3113" height="1414.6" transform="matrix(0.429131 0.903242 -0.429131 0.903242 904.268 -372.986)" fill="#A7DF99"/>
<rect width="39.3113" height="1414.6" transform="matrix(0.429131 0.903242 -0.429131 0.903242 954.877 -266.464)" fill="#BCEAAF"/>
<rect width="39.3113" height="1414.6" transform="matrix(0.429131 0.903242 -0.429131 0.903242 1005.49 -159.941)" fill="#A7DF99"/>
<rect width="39.3113" height="1414.6" transform="matrix(0.429131 0.903242 -0.429131 0.903242 1056.09 -53.4177)" fill="#BCEAAF"/>
<rect width="39.3113" height="1414.6" transform="matrix(0.429131 0.903242 -0.429131 0.903242 1106.7 53.1052)" fill="#A7DF99"/>
<rect width="39.3113" height="1414.6" transform="matrix(0.429131 0.903242 -0.429131 0.903242 1174.18 195.136)" fill="#A7DF99"/>
<rect width="39.3113" height="1414.6" transform="matrix(0.429131 0.903242 -0.429131 0.903242 1157.31 159.628)" fill="#BCEAAF"/>
<path d="M183.312 55H198.938V115.812C198.938 122.729 197.438 128.521 194.438 133.188C191.438 137.854 187.354 141.375 182.188 143.75C177.062 146.083 171.333 147.25 165 147.25C158.458 147.25 152.625 146.083 147.5 143.75C142.375 141.375 138.333 137.854 135.375 133.188C132.458 128.521 131 122.729 131 115.812V55H146.625V115.812C146.625 120.188 147.375 123.792 148.875 126.625C150.375 129.417 152.5 131.479 155.25 132.812C158 134.146 161.25 134.812 165 134.812C168.75 134.812 171.979 134.146 174.688 132.812C177.438 131.479 179.562 129.417 181.062 126.625C182.562 123.792 183.312 120.188 183.312 115.812V55ZM285.5 78.375V89.375H247.375V78.375H285.5ZM258.375 61.8125H273.438V127.312C273.438 129.396 273.729 131 274.312 132.125C274.938 133.208 275.792 133.938 276.875 134.312C277.958 134.688 279.229 134.875 280.688 134.875C281.729 134.875 282.729 134.812 283.688 134.688C284.646 134.562 285.417 134.438 286 134.312L286.062 145.812C284.812 146.188 283.354 146.521 281.688 146.812C280.062 147.104 278.188 147.25 276.062 147.25C272.604 147.25 269.542 146.646 266.875 145.438C264.208 144.188 262.125 142.167 260.625 139.375C259.125 136.583 258.375 132.875 258.375 128.25V61.8125ZM353.25 78.375V146H338.125V78.375H353.25ZM337.125 60.625C337.125 58.3333 337.875 56.4375 339.375 54.9375C340.917 53.3958 343.042 52.625 345.75 52.625C348.417 52.625 350.521 53.3958 352.062 54.9375C353.604 56.4375 354.375 58.3333 354.375 60.625C354.375 62.875 353.604 64.75 352.062 66.25C350.521 67.75 348.417 68.5 345.75 68.5C343.042 68.5 340.917 67.75 339.375 66.25C337.875 64.75 337.125 62.875 337.125 60.625ZM425.875 50V146H410.75V50H425.875ZM498.5 78.375V146H483.375V78.375H498.5ZM482.375 60.625C482.375 58.3333 483.125 56.4375 484.625 54.9375C486.167 53.3958 488.292 52.625 491 52.625C493.667 52.625 495.771 53.3958 497.312 54.9375C498.854 56.4375 499.625 58.3333 499.625 60.625C499.625 62.875 498.854 64.75 497.312 66.25C495.771 67.75 493.667 68.5 491 68.5C488.292 68.5 486.167 67.75 484.625 66.25C483.125 64.75 482.375 62.875 482.375 60.625ZM586 78.375V89.375H547.875V78.375H586ZM558.875 61.8125H573.938V127.312C573.938 129.396 574.229 131 574.812 132.125C575.438 133.208 576.292 133.938 577.375 134.312C578.458 134.688 579.729 134.875 581.188 134.875C582.229 134.875 583.229 134.812 584.188 134.688C585.146 134.562 585.917 134.438 586.5 134.312L586.562 145.812C585.312 146.188 583.854 146.521 582.188 146.812C580.562 147.104 578.688 147.25 576.562 147.25C573.104 147.25 570.042 146.646 567.375 145.438C564.708 144.188 562.625 142.167 561.125 139.375C559.625 136.583 558.875 132.875 558.875 128.25V61.8125ZM675.75 132.438V100.188C675.75 97.7708 675.312 95.6875 674.438 93.9375C673.562 92.1875 672.229 90.8333 670.438 89.875C668.688 88.9167 666.479 88.4375 663.812 88.4375C661.354 88.4375 659.229 88.8542 657.438 89.6875C655.646 90.5208 654.25 91.6458 653.25 93.0625C652.25 94.4792 651.75 96.0833 651.75 97.875H636.75C636.75 95.2083 637.396 92.625 638.688 90.125C639.979 87.625 641.854 85.3958 644.312 83.4375C646.771 81.4792 649.708 79.9375 653.125 78.8125C656.542 77.6875 660.375 77.125 664.625 77.125C669.708 77.125 674.208 77.9792 678.125 79.6875C682.083 81.3958 685.188 83.9792 687.438 87.4375C689.729 90.8542 690.875 95.1458 690.875 100.312V130.375C690.875 133.458 691.083 136.229 691.5 138.688C691.958 141.104 692.604 143.208 693.438 145V146H678C677.292 144.375 676.729 142.312 676.312 139.812C675.938 137.271 675.75 134.812 675.75 132.438ZM677.938 104.875L678.062 114.188H667.25C664.458 114.188 662 114.458 659.875 115C657.75 115.5 655.979 116.25 654.562 117.25C653.146 118.25 652.083 119.458 651.375 120.875C650.667 122.292 650.312 123.896 650.312 125.688C650.312 127.479 650.729 129.125 651.562 130.625C652.396 132.083 653.604 133.229 655.188 134.062C656.812 134.896 658.771 135.312 661.062 135.312C664.146 135.312 666.833 134.688 669.125 133.438C671.458 132.146 673.292 130.583 674.625 128.75C675.958 126.875 676.667 125.104 676.75 123.438L681.625 130.125C681.125 131.833 680.271 133.667 679.062 135.625C677.854 137.583 676.271 139.458 674.312 141.25C672.396 143 670.083 144.438 667.375 145.562C664.708 146.688 661.625 147.25 658.125 147.25C653.708 147.25 649.771 146.375 646.312 144.625C642.854 142.833 640.146 140.438 638.188 137.438C636.229 134.396 635.25 130.958 635.25 127.125C635.25 123.542 635.917 120.375 637.25 117.625C638.625 114.833 640.625 112.5 643.25 110.625C645.917 108.75 649.167 107.333 653 106.375C656.833 105.375 661.208 104.875 666.125 104.875H677.938ZM762.75 78.375V146H747.625V78.375H762.75ZM746.625 60.625C746.625 58.3333 747.375 56.4375 748.875 54.9375C750.417 53.3958 752.542 52.625 755.25 52.625C757.917 52.625 760.021 53.3958 761.562 54.9375C763.104 56.4375 763.875 58.3333 763.875 60.625C763.875 62.875 763.104 64.75 761.562 66.25C760.021 67.75 757.917 68.5 755.25 68.5C752.542 68.5 750.417 67.75 748.875 66.25C747.375 64.75 746.625 62.875 746.625 60.625ZM834.375 91.25V146H819.312V78.375H833.688L834.375 91.25ZM855.062 77.9375L854.938 91.9375C854.021 91.7708 853.021 91.6458 851.938 91.5625C850.896 91.4792 849.854 91.4375 848.812 91.4375C846.229 91.4375 843.958 91.8125 842 92.5625C840.042 93.2708 838.396 94.3125 837.062 95.6875C835.771 97.0208 834.771 98.6458 834.062 100.562C833.354 102.479 832.938 104.625 832.812 107L829.375 107.25C829.375 103 829.792 99.0625 830.625 95.4375C831.458 91.8125 832.708 88.625 834.375 85.875C836.083 83.125 838.208 80.9792 840.75 79.4375C843.333 77.8958 846.312 77.125 849.688 77.125C850.604 77.125 851.583 77.2083 852.625 77.375C853.708 77.5417 854.521 77.7292 855.062 77.9375ZM933.062 147.25C928.062 147.25 923.542 146.438 919.5 144.812C915.5 143.146 912.083 140.833 909.25 137.875C906.458 134.917 904.312 131.438 902.812 127.438C901.312 123.438 900.562 119.125 900.562 114.5V112C900.562 106.708 901.333 101.917 902.875 97.625C904.417 93.3333 906.562 89.6667 909.312 86.625C912.062 83.5417 915.312 81.1875 919.062 79.5625C922.812 77.9375 926.875 77.125 931.25 77.125C936.083 77.125 940.312 77.9375 943.938 79.5625C947.562 81.1875 950.562 83.4792 952.938 86.4375C955.354 89.3542 957.146 92.8333 958.312 96.875C959.521 100.917 960.125 105.375 960.125 110.25V116.688H907.875V105.875H945.25V104.688C945.167 101.979 944.625 99.4375 943.625 97.0625C942.667 94.6875 941.188 92.7708 939.188 91.3125C937.188 89.8542 934.521 89.125 931.188 89.125C928.688 89.125 926.458 89.6667 924.5 90.75C922.583 91.7917 920.979 93.3125 919.688 95.3125C918.396 97.3125 917.396 99.7292 916.688 102.562C916.021 105.354 915.688 108.5 915.688 112V114.5C915.688 117.458 916.083 120.208 916.875 122.75C917.708 125.25 918.917 127.438 920.5 129.312C922.083 131.188 924 132.667 926.25 133.75C928.5 134.792 931.062 135.312 933.938 135.312C937.562 135.312 940.792 134.583 943.625 133.125C946.458 131.667 948.917 129.604 951 126.938L958.938 134.625C957.479 136.75 955.583 138.792 953.25 140.75C950.917 142.667 948.062 144.229 944.688 145.438C941.354 146.646 937.479 147.25 933.062 147.25Z" fill="#725C4E"/>
</g>
</svg>
